<svg id="Layer_1" data-name="Layer 1" xmlns="http://www.w3.org/2000/svg" width="99.07001" height="146.93833" viewBox="0 0 99.07001 146.93833">
  <path d="M12.0273,61.623Q4.3871,52.71532,4.38711,39.13a35.41456,35.41456,0,0,1,5.78964-19.565A40.34233,40.34233,0,0,1,26.14812,5.39035,49.92833,49.92833,0,0,1,49.5063,0Q68.27268,0,79.45267,9.18356q11.18,8.98391,14.97317,20.36353l-20.1639,8.58462a26.02663,26.02663,0,0,0-8.385-11.97854Q59.688,20.96246,49.90555,20.96246T33.33524,25.95353A15.36659,15.36659,0,0,0,26.747,38.73064,14.93782,14.93782,0,0,0,32.7363,50.90883q5.98927,4.79142,18.76639,9.18355L56.09446,61.623Z" transform="translate(0 0.0061)" fill="#fff" fill-rule="evenodd"/>
  <g>
    <path d="M13.31485,62.28337a.58638.58638,0,1,0-.41917-.17189A.56928.56928,0,0,0,13.31485,62.28337Z" transform="translate(0 0.0061)" fill="#fff"/>
    <path d="M13.75417,62.87409h-.8186c.26511.2801.54139.55336.8186.82611Z" transform="translate(0 0.0061)" fill="#fff"/>
    <path d="M15.3272,64.00809a1.15426,1.15426,0,0,1,.44321-.3753,1.31458,1.31458,0,0,1,.58717-.13582,1.0772,1.0772,0,0,1,.71844.23558.76157.76157,0,0,1,.27977.61088v.20766a2.354,2.354,0,0,0-.45524-.14752,2.82844,2.82844,0,0,0-.647-.06792,1.90872,1.90872,0,0,0-1.20195.36718,1.28394,1.28394,0,0,0-.10857.10459q.30822.2838.62169.56247a.63915.63915,0,0,1,.12993-.168,1.11341,1.11341,0,0,1,.72657-.19561,1.99267,1.99267,0,0,1,.50723.064,1.79167,1.79167,0,0,1,.42729.16768,1.10453,1.10453,0,0,1-.144.55077,1.08218,1.08218,0,0,1-.39935.40747,1.05689,1.05689,0,0,1-.22827.0957c.16674.14225.3455.27291.514.41349a1.25471,1.25471,0,0,0,.21758-.24566h.04v.45285l.04257.03424h.81983V64.40749a1.57277,1.57277,0,0,0-.47929-1.226,1.96232,1.96232,0,0,0-1.3654-.43509,2.17859,2.17859,0,0,0-.95824.20763,1.83266,1.83266,0,0,0-.70285.58294Z" transform="translate(0 0.0061)" fill="#fff"/>
    <rect x="19.17643" y="61.23537" width="0.87831" height="5.71762" fill="#fff"/>
    <path d="M25.06984,62.74641a1.47564,1.47564,0,0,0-.71876.18359,1.37316,1.37316,0,0,0-.51926.47928h-.04v-.53519h-.83835v4.0728h.87831V64.751a1.33259,1.33259,0,0,1,.26775-.84648.8283.8283,0,0,1,.6827-.34346q.81444,0,.81462.9264v2.45947h.87831V64.751a1.32137,1.32137,0,0,1,.27132-.84648.84736.84736,0,0,1,.69505-.34346q.79057,0,.79057.9264v2.45947h.8783V64.33568a1.7362,1.7362,0,0,0-.36328-1.162,1.32282,1.32282,0,0,0-1.06612-.42729,1.55263,1.55263,0,0,0-1.37352.74281,1.16736,1.16736,0,0,0-.47116-.53908A1.42179,1.42179,0,0,0,25.06984,62.74641Z" transform="translate(0 0.0061)" fill="#fff"/>
    <path d="M33.9098,64.82277a2.34389,2.34389,0,0,0-.23558-1.06223,1.77876,1.77876,0,0,0-.6866-.74248,2.0294,2.0294,0,0,0-1.06612-.27165,1.9174,1.9174,0,0,0-1.0541.29537,2.04354,2.04354,0,0,0-.723.7948,2.3121,2.3121,0,0,0-.2593,1.082,2.27151,2.27151,0,0,0,.26742,1.10577,1.96842,1.96842,0,0,0,.74281.77076,2.24462,2.24462,0,0,0,2.18392-.00814,2.18489,2.18489,0,0,0,.75061-.79057l-.74249-.35126a1.28975,1.28975,0,0,1-.44322.46727,1.20668,1.20668,0,0,1-.65085.17157,1.22431,1.22431,0,0,1-.82664-.30741,1.24032,1.24032,0,0,1-.40325-.87441h3.12234A2.05226,2.05226,0,0,0,33.9098,64.82277Zm-3.10641-.39123a1.30245,1.30245,0,0,1,.40325-.67489,1.056,1.056,0,0,1,.71486-.25151,1.1526,1.1526,0,0,1,.595.14363.97456.97456,0,0,1,.36329.35549,1.0185,1.0185,0,0,1,.13582.42729Z" transform="translate(0 0.0061)" fill="#fff"/>
    <path d="M37.2635,62.93809a1.56224,1.56224,0,0,0-.77466-.19171,1.847,1.847,0,0,0-.99821.27944,1.98117,1.98117,0,0,0-.70674.77076,2.52217,2.52217,0,0,0,0,2.22778,1.97879,1.97879,0,0,0,.70674.77076,1.8469,1.8469,0,0,0,.99821.27944,1.55875,1.55875,0,0,0,.77466-.19171,1.431,1.431,0,0,0,.51925-.463h.04v.527h.83834V61.22927h-.87831v1.60487l.04.57514h-.04A1.40312,1.40312,0,0,0,37.2635,62.93809Zm.39155,2.683a1.22974,1.22974,0,0,1-.44322.47929,1.125,1.125,0,0,1-.595.16766,1.14543,1.14543,0,0,1-.59919-.16766,1.21736,1.21736,0,0,1-.44712-.4793,1.47444,1.47444,0,0,1-.16766-.71064,1.4527,1.4527,0,0,1,.16766-.70674,1.22516,1.22516,0,0,1,.44712-.47506,1.14535,1.14535,0,0,1,.59919-.16767,1.1251,1.1251,0,0,1,.595.16767,1.23767,1.23767,0,0,1,.44322.47506,1.45282,1.45282,0,0,1,.16767.70674,1.47454,1.47454,0,0,1-.16767.7107Z" transform="translate(0 0.0061)" fill="#fff"/>
    <path d="M40.60549,61.27309a.597.597,0,1,0,.17189.41918A.57055.57055,0,0,0,40.60549,61.27309Z" transform="translate(0 0.0061)" fill="#fff"/>
    <rect x="39.74701" y="62.88021" width="0.87863" height="4.07278" fill="#fff"/>
    <path d="M43.772,64.4036a2.82844,2.82844,0,0,0-.647-.06792,1.90865,1.90865,0,0,0-1.20195.36718,1.19453,1.19453,0,0,0-.47506.99822,1.34939,1.34939,0,0,0,.19171.71486,1.28055,1.28055,0,0,0,.53518.48709,1.72684,1.72684,0,0,0,.78245.17157,1.50086,1.50086,0,0,0,.7347-.17547,1.38162,1.38162,0,0,0,.4952-.43932h.04v.48708h.86239v-2.5394a1.57274,1.57274,0,0,0-.47929-1.226A1.96231,1.96231,0,0,0,43.245,62.7464a2.17861,2.17861,0,0,0-.95825.20763,1.83265,1.83265,0,0,0-.70284.58294l.61479.47116a1.15426,1.15426,0,0,1,.44321-.3753A1.31461,1.31461,0,0,1,43.229,63.497a1.07714,1.07714,0,0,1,.71844.23558.76154.76154,0,0,1,.27977.61088v.20762A2.35447,2.35447,0,0,0,43.772,64.4036Zm.31129,1.38521a1.08247,1.08247,0,0,1-.39935.40747,1.10509,1.10509,0,0,1-.57481.15175.84444.84444,0,0,1-.5589-.17969.571.571,0,0,1-.21576-.45914.63258.63258,0,0,1,.23169-.50723,1.1134,1.1134,0,0,1,.72657-.19561,1.99223,1.99223,0,0,1,.50723.064,1.79239,1.79239,0,0,1,.42729.16767,1.10454,1.10454,0,0,1-.144.55078Z" transform="translate(0 0.0061)" fill="#fff"/>
    <path d="M48.79493,61.22927h-.87831v5.71762H48.755v-.52706h.04a1.42826,1.42826,0,0,0,.51925.463,1.558,1.558,0,0,0,.77465.19171,1.847,1.847,0,0,0,.99821-.27944,1.97811,1.97811,0,0,0,.70642-.77076,2.52217,2.52217,0,0,0,0-2.22778,1.98035,1.98035,0,0,0-.70642-.77076,1.8469,1.8469,0,0,0-.99821-.27944,1.56128,1.56128,0,0,0-.77465.19171,1.40038,1.40038,0,0,0-.51925.47116h-.04l.04-.57514Zm.1277,2.97449a1.23757,1.23757,0,0,1,.44321-.47506,1.12423,1.12423,0,0,1,.595-.16767,1.147,1.147,0,0,1,.59918.16767,1.22758,1.22758,0,0,1,.44712.47506,1.45271,1.45271,0,0,1,.16767.70674,1.47445,1.47445,0,0,1-.16767.71064,1.21965,1.21965,0,0,1-.44712.4793,1.147,1.147,0,0,1-.59918.16766,1.12422,1.12422,0,0,1-.595-.16766,1.2296,1.2296,0,0,1-.44321-.4793,1.47445,1.47445,0,0,1-.16767-.71064A1.45271,1.45271,0,0,1,48.92263,64.20376Z" transform="translate(0 0.0061)" fill="#fff"/>
    <path d="M55.32685,62.83414a1.42776,1.42776,0,0,0-1.20553.1238,1.13249,1.13249,0,0,0-.47116.515h-.04029v-.59885h-.83834v4.0728h.87863V64.7906a1.27223,1.27223,0,0,1,.13583-.58684,1.1116,1.1116,0,0,1,.37108-.4273.94.94,0,0,1,.53939-.15954,1.86994,1.86994,0,0,1,.63039.1277Z" transform="translate(0 0.0061)" fill="#fff"/>
    <path d="M59.14423,64.40749a1.57372,1.57372,0,0,0-.479-1.226,1.96285,1.96285,0,0,0-1.3654-.43509,2.18,2.18,0,0,0-.95856.20763,1.83154,1.83154,0,0,0-.70252.58294l.61478.47116a1.15206,1.15206,0,0,1,.44322-.3753,1.314,1.314,0,0,1,.58684-.13582,1.0786,1.0786,0,0,1,.71876.23558.76123.76123,0,0,1,.27945.61088v.20762a2.35,2.35,0,0,0-.45491-.14752,2.82912,2.82912,0,0,0-.64728-.06792,1.90771,1.90771,0,0,0-1.20163.36718,1.19368,1.19368,0,0,0-.47506.99822,1.34639,1.34639,0,0,0,.19172.71486,1.2796,1.2796,0,0,0,.53485.48709,1.72755,1.72755,0,0,0,.78245.17156,1.503,1.503,0,0,0,.735-.17546,1.38708,1.38708,0,0,0,.49521-.43932h.03964v.48708h.86239Zm-1.006,1.38132a1.08319,1.08319,0,0,1-.39968.40747,1.10474,1.10474,0,0,1-.57449.15175.8437.8437,0,0,1-.55889-.17969.57007.57007,0,0,1-.21576-.45914.63228.63228,0,0,1,.23135-.50723,1.114,1.114,0,0,1,.72657-.19561,1.99335,1.99335,0,0,1,.50755.064,1.78931,1.78931,0,0,1,.427.16767A1.1076,1.1076,0,0,1,58.13823,65.78881Z" transform="translate(0 0.0061)" fill="#fff"/>
    <path d="M60.1028,66.94689h.878V64.74283a1.35262,1.35262,0,0,1,.128-.58294,1.087,1.087,0,0,1,.35938-.43509.8898.8898,0,0,1,.52705-.16377.90527.90527,0,0,1,.65053.22356.92888.92888,0,0,1,.2359.70284v2.45946h.87864V64.36753a2.48629,2.48629,0,0,0-.018-.26438q-1.25641-.48093-2.55426-.94261a1.19355,1.19355,0,0,0-.20723.24874h-.03964v-.33761c-.135-.04756-.2656-.09723-.4013-.14447l-.15926-.05309H60.1028Z" transform="translate(0 0.0061)" fill="#fff"/>
    <path d="M67.21376,66.10043a1.12471,1.12471,0,0,1-.59464.16766,1.14524,1.14524,0,0,1-.59919-.16766,1.21506,1.21506,0,0,1-.44712-.47929,1.47456,1.47456,0,0,1-.16767-.71064c0-.05317.01227-.09958.01673-.15032q-.4185-.16859-.84207-.33481a2.5918,2.5918,0,0,0-.0533.48513,2.34819,2.34819,0,0,0,.25931,1.11389,1.97961,1.97961,0,0,0,.70706.77076,1.847,1.847,0,0,0,.99823.27945,1.55983,1.55983,0,0,0,.77465-.19172,1.43632,1.43632,0,0,0,.51925-.463h.03964v.527H68.663v-.812q-.51863-.23121-1.04484-.45874A1.21042,1.21042,0,0,1,67.21376,66.10043Z" transform="translate(0 0.0061)" fill="#fff"/>
    <path d="M27.68105,72.72885a1.58854,1.58854,0,0,0-.81852.20342,1.62806,1.62806,0,0,0-.31471.23923c.23364.13075.46507.26368.70114.39208a.92852.92852,0,0,1,.19261-.02043.687.687,0,0,1,.74342.5392c.302.158.61962.30092.92546.45524V74.3178a1.7357,1.7357,0,0,0-.36328-1.162A1.32268,1.32268,0,0,0,27.68105,72.72885Z" transform="translate(0 0.0061)" fill="#fff"/>
    <path d="M30.76342,75.084h3.12234a2.04671,2.04671,0,0,0,.024-.27945,2.34454,2.34454,0,0,0-.23558-1.0619,1.78156,1.78156,0,0,0-.6866-.74281,2.0321,2.0321,0,0,0-1.06612-.271,1.91727,1.91727,0,0,0-1.0541.295,2.04143,2.04143,0,0,0-.723.7948,2.31214,2.31214,0,0,0-.2593,1.082l.00215.019c.30991.15155.614.30861.92786.45639A1.65858,1.65858,0,0,1,30.76342,75.084Zm.44322-1.34525a1.056,1.056,0,0,1,.71486-.25151,1.15586,1.15586,0,0,1,.595.14363.977.977,0,0,1,.36329.35549,1.01873,1.01873,0,0,1,.13582.427H30.80339A1.30279,1.30279,0,0,1,31.20664,73.73876Z" transform="translate(0 0.0061)" fill="#fff"/>
    <path d="M33.82987,75.97889l-.74249-.35158a1.28975,1.28975,0,0,1-.44322.46727,1.09054,1.09054,0,0,1-.11892.05092q.429.1886.86356.37162A2.24514,2.24514,0,0,0,33.82987,75.97889Z" transform="translate(0 0.0061)" fill="#fff"/>
    <path d="M34.78389,76.00684a1.98107,1.98107,0,0,0,.70674.77075,1.84981,1.84981,0,0,0,.99821.27945,1.56586,1.56586,0,0,0,.77466-.19171,1.43177,1.43177,0,0,0,.51925-.46337h.04v.527h.83834V71.21139h-.87831v1.6052l.04.5745h-.04a1.40852,1.40852,0,0,0-.51925-.47117,1.56542,1.56542,0,0,0-.77466-.19107,1.84439,1.84439,0,0,0-.99821.27945,1.97935,1.97935,0,0,0-.70674.77011,2.52359,2.52359,0,0,0,0,2.22844Zm.78667-1.821a1.22523,1.22523,0,0,1,.44712-.47506,1.14535,1.14535,0,0,1,.59919-.16767,1.1251,1.1251,0,0,1,.595.16767,1.23767,1.23767,0,0,1,.44322.47506,1.45414,1.45414,0,0,1,.16767.70707,1.47408,1.47408,0,0,1-.16767.71031,1.22648,1.22648,0,0,1-.44322.479,1.11988,1.11988,0,0,1-.595.16832,1.14011,1.14011,0,0,1-.59919-.16832,1.21423,1.21423,0,0,1-.44712-.479,1.47407,1.47407,0,0,1-.16766-.71031,1.45408,1.45408,0,0,1,.16766-.707Z" transform="translate(0 0.0061)" fill="#fff"/>
    <path d="M39.76715,72.09392a.59822.59822,0,1,0-.17157-.41982A.57026.57026,0,0,0,39.76715,72.09392Z" transform="translate(0 0.0061)" fill="#fff"/>
    <rect x="39.74701" y="72.86233" width="0.87863" height="4.07278" fill="#fff"/>
    <path d="M43.772,74.38539a2.84755,2.84755,0,0,0-.647-.06759,1.90655,1.90655,0,0,0-1.20195.36719,1.19448,1.19448,0,0,0-.47506.9982,1.35014,1.35014,0,0,0,.19171.71486,1.27764,1.27764,0,0,0,.53518.48676,1.72673,1.72673,0,0,0,.78245.17222,1.501,1.501,0,0,0,.7347-.17611,1.37577,1.37577,0,0,0,.4952-.43931h.04V76.929h.86239V74.38929a1.572,1.572,0,0,0-.47929-1.22567,1.96228,1.96228,0,0,0-1.36539-.43477,2.17847,2.17847,0,0,0-.95825.20732,1.83265,1.83265,0,0,0-.70284.58294l.61479.47117a1.15509,1.15509,0,0,1,.44321-.37564,1.31387,1.31387,0,0,1,.58717-.13518,1.07874,1.07874,0,0,1,.71844.23526.76154.76154,0,0,1,.27977.61088v.208A2.35031,2.35031,0,0,0,43.772,74.38539Zm.31129,1.38553a1.0824,1.0824,0,0,1-.39935.40747,1.10172,1.10172,0,0,1-.57481.15143.8442.8442,0,0,1-.5589-.17937.5708.5708,0,0,1-.21576-.45945.63245.63245,0,0,1,.23169-.50692,1.1116,1.1116,0,0,1,.72657-.19561,2.00711,2.00711,0,0,1,.50723.06369,1.81943,1.81943,0,0,1,.42729.16768,1.104,1.104,0,0,1-.144.55109Z" transform="translate(0 0.0061)" fill="#fff"/>
    <path d="M47.91662,76.929H48.755v-.527h.04a1.429,1.429,0,0,0,.51925.46337,1.56491,1.56491,0,0,0,.77465.19171,1.84978,1.84978,0,0,0,.99821-.27945,1.98024,1.98024,0,0,0,.70642-.77075,2.52352,2.52352,0,0,0,0-2.22844,1.97853,1.97853,0,0,0-.70642-.77011,1.84439,1.84439,0,0,0-.99821-.27945,1.56448,1.56448,0,0,0-.77465.19107,1.40591,1.40591,0,0,0-.51925.47117h-.04l.04-.5745v-1.6052h-.87831Zm1.006-2.74313a1.23757,1.23757,0,0,1,.44321-.47506,1.12423,1.12423,0,0,1,.595-.16767,1.147,1.147,0,0,1,.59918.16767,1.22743,1.22743,0,0,1,.44712.47506,1.45389,1.45389,0,0,1,.16767.70707,1.474,1.474,0,0,1-.16767.71031,1.2165,1.2165,0,0,1-.44712.479,1.14166,1.14166,0,0,1-.59918.16831,1.119,1.119,0,0,1-.595-.16831,1.22652,1.22652,0,0,1-.44321-.479A1.47408,1.47408,0,0,1,48.755,74.893,1.45419,1.45419,0,0,1,48.92262,74.18588Z" transform="translate(0 0.0061)" fill="#fff"/>
    <path d="M52.77153,72.85623V76.929h.87863V74.77272a1.274,1.274,0,0,1,.13583-.58683,1.113,1.113,0,0,1,.37108-.427.9378.9378,0,0,1,.53939-.15986,1.87063,1.87063,0,0,1,.63039.128v-.91043a1.42572,1.42572,0,0,0-1.20555.1235,1.13145,1.13145,0,0,0-.47116.51536h-.04029v-.59919Z" transform="translate(0 0.0061)" fill="#fff"/>
    <path d="M59.14423,76.929V74.38929a1.573,1.573,0,0,0-.479-1.22567,1.96283,1.96283,0,0,0-1.3654-.43477,2.17986,2.17986,0,0,0-.95856.20732,1.83154,1.83154,0,0,0-.70252.58294l.61478.47117a1.15255,1.15255,0,0,1,.44322-.37564,1.31342,1.31342,0,0,1,.58684-.13518,1.08026,1.08026,0,0,1,.71876.23526.76125.76125,0,0,1,.27945.61088v.208a2.3463,2.3463,0,0,0-.45491-.14817,2.84947,2.84947,0,0,0-.64728-.06759A1.90574,1.90574,0,0,0,55.978,74.685a1.19365,1.19365,0,0,0-.47506.99821,1.34728,1.34728,0,0,0,.19172.71486,1.27682,1.27682,0,0,0,.53485.48676,1.7278,1.7278,0,0,0,.78245.17222,1.50315,1.50315,0,0,0,.735-.17612,1.38091,1.38091,0,0,0,.49521-.43931h.03964v.4874Zm-1.006-1.15808a1.08319,1.08319,0,0,1-.39968.40747,1.10137,1.10137,0,0,1-.57449.15143.84353.84353,0,0,1-.55889-.17937.56982.56982,0,0,1-.21576-.45946.63213.63213,0,0,1,.23135-.50691,1.11224,1.11224,0,0,1,.72657-.19561,2.00784,2.00784,0,0,1,.50755.06369,1.81685,1.81685,0,0,1,.427.16767A1.1071,1.1071,0,0,1,58.13823,75.77093Z" transform="translate(0 0.0061)" fill="#fff"/>
    <path d="M63.7603,74.34965a1.72179,1.72179,0,0,0-.38733-1.186,1.43517,1.43517,0,0,0-1.13014-.43477,1.53552,1.53552,0,0,0-.73891.18718,1.3478,1.3478,0,0,0-.52315.47506h-.03964v-.53486H60.1028V76.929h.878V74.72528a1.35542,1.35542,0,0,1,.128-.58358,1.088,1.088,0,0,1,.35938-.43477.88974.88974,0,0,1,.52705-.16378.90677.90677,0,0,1,.65053.22356.92813.92813,0,0,1,.2359.70252V76.929h.87864Z" transform="translate(0 0.0061)" fill="#fff"/>
    <path d="M67.26575,72.91992a1.56608,1.56608,0,0,0-.77465-.19107,1.84426,1.84426,0,0,0-.99823.27945,1.98,1.98,0,0,0-.70706.77011,2.52344,2.52344,0,0,0,0,2.22843,1.98183,1.98183,0,0,0,.70706.77075,1.84976,1.84976,0,0,0,.99823.27945,1.56665,1.56665,0,0,0,.77465-.19171A1.437,1.437,0,0,0,67.785,76.402h.03964v.527H68.663V71.21139h-.878v1.6052l.03964.5745H67.785A1.41344,1.41344,0,0,0,67.26575,72.91992Zm.39122,2.68334a1.22174,1.22174,0,0,1-.44322.479,1.11958,1.11958,0,0,1-.59464.16831,1.1401,1.1401,0,0,1-.59919-.16831,1.21207,1.21207,0,0,1-.44711-.479,1.474,1.474,0,0,1-.16767-.71031,1.454,1.454,0,0,1,.16767-.70707,1.22274,1.22274,0,0,1,.44711-.47506,1.14528,1.14528,0,0,1,.59919-.16767,1.12458,1.12458,0,0,1,.59464.16767,1.23273,1.23273,0,0,1,.44322.47506,1.45414,1.45414,0,0,1,.16767.70707A1.47411,1.47411,0,0,1,67.657,75.60326Z" transform="translate(0 0.0061)" fill="#fff"/>
    <path d="M73.1192,72.72885a2.17975,2.17975,0,0,0-.95857.20731,1.83157,1.83157,0,0,0-.70252.58295l.61477.47116a1.15271,1.15271,0,0,1,.44322-.37564,1.31344,1.31344,0,0,1,.58684-.13517,1.08017,1.08017,0,0,1,.71878.23526.76129.76129,0,0,1,.27944.61087v.208a2.34721,2.34721,0,0,0-.45491-.14817,2.84884,2.84884,0,0,0-.64728-.06758,1.9056,1.9056,0,0,0-1.20162.36718,1.19366,1.19366,0,0,0-.47506.99821,1.34706,1.34706,0,0,0,.19171.71486,1.27688,1.27688,0,0,0,.53485.48676,1.7278,1.7278,0,0,0,.78245.17222,1.50315,1.50315,0,0,0,.735-.17612,1.38115,1.38115,0,0,0,.49521-.4393h.03964V76.929h.86239V74.38929a1.573,1.573,0,0,0-.479-1.22567A1.96281,1.96281,0,0,0,73.1192,72.72885Zm.83834,3.04207a1.08317,1.08317,0,0,1-.39967.40747,1.10129,1.10129,0,0,1-.5745.15143.84356.84356,0,0,1-.55889-.17937.56982.56982,0,0,1-.21576-.45945.63216.63216,0,0,1,.23136-.50692,1.11219,1.11219,0,0,1,.72656-.19561,2.00778,2.00778,0,0,1,.50755.06369,1.8166,1.8166,0,0,1,.427.16768A1.10708,1.10708,0,0,1,73.95754,75.77092Z" transform="translate(0 0.0061)" fill="#fff"/>
    <path d="M79.579,74.34965a1.71861,1.71861,0,0,0-.38732-1.186,1.43377,1.43377,0,0,0-1.1295-.43477,1.53357,1.53357,0,0,0-.7389.18718,1.34766,1.34766,0,0,0-.52315.47506h-.03965v-.53486h-.83834V76.929h.878V74.72528a1.35528,1.35528,0,0,1,.128-.58358,1.08661,1.08661,0,0,1,.35872-.43477.8931.8931,0,0,1,.5277-.16378.90781.90781,0,0,1,.65053.22356.92809.92809,0,0,1,.23591.70252V76.929h.878Z" transform="translate(0 0.0061)" fill="#fff"/>
    <path d="M83.939,75.20026c-.28448-.22669-.57075-.45248-.86239-.67571v.009a2.34562,2.34562,0,0,0-.45491-.14817,2.84723,2.84723,0,0,0-.64663-.06759,1.90756,1.90756,0,0,0-1.20227.36719,1.19536,1.19536,0,0,0-.47506.9982,1.34713,1.34713,0,0,0,.19171.71486,1.28083,1.28083,0,0,0,.53485.48677,1.72853,1.72853,0,0,0,.7831.17221,1.50227,1.50227,0,0,0,.73436-.17611,1.37029,1.37029,0,0,0,.49521-.43931h.03964v.4874H83.939Zm-1.006.57067a1.08148,1.08148,0,0,1-.399.40747,1.10377,1.10377,0,0,1-.57515.15143A.84481.84481,0,0,1,81.4,76.15046a.57174.57174,0,0,1-.21576-.45946.63413.63413,0,0,1,.23136-.50691,1.11415,1.11415,0,0,1,.72721-.19561,2.00636,2.00636,0,0,1,.5069.06369,1.80535,1.80535,0,0,1,.427.16767,1.10026,1.10026,0,0,1-.14368.55109Z" transform="translate(0 0.0061)" fill="#fff"/>
    <path d="M80.43357,73.51909l.61479.47116a1.15738,1.15738,0,0,1,.44321-.37563,1.31019,1.31019,0,0,1,.247-.08806c-.23859-.17214-.48506-.34042-.72807-.51036A1.81377,1.81377,0,0,0,80.43357,73.51909Z" transform="translate(0 0.0061)" fill="#fff"/>
    <path d="M85.77622,76.73149c-.29123-.25389-.579-.50942-.87864-.7593V76.929h.87864Z" transform="translate(0 0.0061)" fill="#fff"/>
    <path d="M87.867,78.65379c-.16088-.15695-.32457-.31255-.48838-.46808l-.213.46808Z" transform="translate(0 0.0061)" fill="#fff"/>
    <path d="M47.91662,81.85379c.29467.1065.58866.213.87831.31958v-.97986h-.87831Z" transform="translate(0 0.0061)" fill="#fff"/>
    <path d="M50.30841,82.74018c.293.11129.59183.22251.87932.33384-.0355-.02563-.06324-.06019-.10069-.08359A1.81673,1.81673,0,0,0,50.30841,82.74018Z" transform="translate(0 0.0061)" fill="#fff"/>
    <path d="M54.15707,83.741a.93789.93789,0,0,1,.53939-.15987,1.87111,1.87111,0,0,1,.63039.128v-.91047a1.42571,1.42571,0,0,0-1.20553.12348,1.13148,1.13148,0,0,0-.47116.51535h-.04029v-.59919h-.83834v.86136c.35386.14216.69744.28434,1.04236.4265A1.10565,1.10565,0,0,1,54.15707,83.741Z" transform="translate(0 0.0061)" fill="#fff"/>
    <path d="M58.6653,83.14574a1.96282,1.96282,0,0,0-1.3654-.43476,2.17968,2.17968,0,0,0-.95856.20731,1.83163,1.83163,0,0,0-.70252.58294l.61478.47116a1.15268,1.15268,0,0,1,.44322-.37563,1.31345,1.31345,0,0,1,.58684-.13518,1.0802,1.0802,0,0,1,.71877.23526.76123.76123,0,0,1,.27944.61088v.208a2.347,2.347,0,0,0-.45491-.14818A2.84941,2.84941,0,0,0,57.17968,84.3a1.90567,1.90567,0,0,0-1.20163.36718,1.23457,1.23457,0,0,0-.25085.2675c.26844.11641.54025.23278.80272.34915a.635.635,0,0,1,.09086-.11755,1.11218,1.11218,0,0,1,.72657-.19561,2.00778,2.00778,0,0,1,.50755.06369,1.81649,1.81649,0,0,1,.427.16767,1.1071,1.1071,0,0,1-.14362.55109,1.08756,1.08756,0,0,1-.14419.19285c.39309.18212.77181.36418,1.1502.54622V84.37141A1.573,1.573,0,0,0,58.6653,83.14574Z" transform="translate(0 0.0061)" fill="#fff"/>
    <path d="M63.7603,86.91109V84.33177a1.72179,1.72179,0,0,0-.38733-1.186,1.43513,1.43513,0,0,0-1.13014-.43476,1.5353,1.5353,0,0,0-.73891.18716,1.34773,1.34773,0,0,0-.52315.47506h-.03964v-.53486H60.1028v4.07272h.878V84.7074a1.3555,1.3555,0,0,1,.128-.58359,1.08813,1.08813,0,0,1,.35938-.43477.8898.8898,0,0,1,.52705-.16377.90668.90668,0,0,1,.65053.22356.92812.92812,0,0,1,.2359.70252v2.45974Z" transform="translate(0 0.0061)" fill="#fff"/>
    <path d="M68.663,86.91109V81.19351h-.878v1.6052l.03964.57449H67.785a1.41375,1.41375,0,0,0-.51925-.47116,1.56615,1.56615,0,0,0-.77465-.19106,1.84416,1.84416,0,0,0-.99822.27944,1.98011,1.98011,0,0,0-.70706.77011,2.52344,2.52344,0,0,0,0,2.22843,1.98175,1.98175,0,0,0,.70706.77075,1.84967,1.84967,0,0,0,.99822.27945,1.56659,1.56659,0,0,0,.77465-.19171,1.437,1.437,0,0,0,.51925-.46337h.03965v.527Zm-1.006-1.32575a1.22153,1.22153,0,0,1-.44323.479,1.11945,1.11945,0,0,1-.59464.16832,1.14,1.14,0,0,1-.59919-.16832,1.21184,1.21184,0,0,1-.44711-.479,1.47408,1.47408,0,0,1-.16767-.71031,1.45411,1.45411,0,0,1,.16767-.70707,1.22274,1.22274,0,0,1,.44711-.47506,1.14531,1.14531,0,0,1,.59919-.16767,1.12458,1.12458,0,0,1,.59464.16767,1.23275,1.23275,0,0,1,.44323.47506,1.45424,1.45424,0,0,1,.16766.70707,1.47411,1.47411,0,0,1-.16768.71035Z" transform="translate(0 0.0061)" fill="#fff"/>
    <path d="M73.64625,84.36751a2.84941,2.84941,0,0,0-.64728-.06758,1.90558,1.90558,0,0,0-1.20167.36716,1.19367,1.19367,0,0,0-.47506.9982,1.34716,1.34716,0,0,0,.19171.71486,1.2769,1.2769,0,0,0,.53485.48677,1.72772,1.72772,0,0,0,.78245.17221,1.50309,1.50309,0,0,0,.735-.17611,1.38091,1.38091,0,0,0,.49521-.43931h.03964v.4874h.86239v-2.5397a1.573,1.573,0,0,0-.479-1.22567,1.9628,1.9628,0,0,0-1.36539-.43476,2.17975,2.17975,0,0,0-.95857.20731,1.83166,1.83166,0,0,0-.70253.58294l.61478.47116a1.15261,1.15261,0,0,1,.44322-.37563,1.31345,1.31345,0,0,1,.58684-.13518,1.08018,1.08018,0,0,1,.71877.23526.76128.76128,0,0,1,.27945.61088v.208A2.34671,2.34671,0,0,0,73.64625,84.36751Zm.31128,1.38554a1.0832,1.0832,0,0,1-.39967.40748,1.10142,1.10142,0,0,1-.5745.15142.84361.84361,0,0,1-.55889-.17936.56987.56987,0,0,1-.21576-.45946.63212.63212,0,0,1,.23136-.50691,1.11209,1.11209,0,0,1,.72656-.19561,2.0074,2.0074,0,0,1,.50756.06369,1.81606,1.81606,0,0,1,.427.16767,1.10711,1.10711,0,0,1-.14365.55112Z" transform="translate(0 0.0061)" fill="#fff"/>
    <path d="M79.579,84.33177a1.7186,1.7186,0,0,0-.38732-1.186,1.43369,1.43369,0,0,0-1.1295-.43476,1.53347,1.53347,0,0,0-.7389.18716,1.34766,1.34766,0,0,0-.52315.47506h-.03965v-.53486h-.83834v4.07272h.878V84.7074a1.35536,1.35536,0,0,1,.128-.58359,1.08668,1.08668,0,0,1,.35872-.43477.8931.8931,0,0,1,.5277-.16377.90781.90781,0,0,1,.65053.22356.92809.92809,0,0,1,.23591.70252v2.45974h.878Z" transform="translate(0 0.0061)" fill="#fff"/>
    <path d="M83.939,84.37141a1.57075,1.57075,0,0,0-.479-1.22567,1.96165,1.96165,0,0,0-1.36538-.43476,2.18184,2.18184,0,0,0-.95858.20731,1.83163,1.83163,0,0,0-.70252.58294l.61479.47116a1.15738,1.15738,0,0,1,.44321-.37563,1.31339,1.31339,0,0,1,.58684-.13518,1.079,1.079,0,0,1,.71877.23526.76127.76127,0,0,1,.27944.61088v.208a2.347,2.347,0,0,0-.45491-.14818A2.84716,2.84716,0,0,0,81.975,84.3a1.90755,1.90755,0,0,0-1.20227.36718,1.19537,1.19537,0,0,0-.47506.99821,1.34718,1.34718,0,0,0,.19171.71486,1.28071,1.28071,0,0,0,.53486.48676,1.7286,1.7286,0,0,0,.78309.17222,1.50239,1.50239,0,0,0,.73436-.17612,1.37012,1.37012,0,0,0,.49521-.43931h.03964v.4874H83.939Zm-1.006,1.38168a1.08158,1.08158,0,0,1-.399.40748,1.10388,1.10388,0,0,1-.57515.15142A.84467.84467,0,0,1,81.4,86.13262a.57171.57171,0,0,1-.21576-.45945.63408.63408,0,0,1,.23136-.50692,1.11425,1.11425,0,0,1,.72721-.19561,2.00688,2.00688,0,0,1,.5069.0637,1.80466,1.80466,0,0,1,.427.16767A1.10037,1.10037,0,0,1,82.933,85.75309Z" transform="translate(0 0.0061)" fill="#fff"/>
    <rect x="84.89759" y="81.19961" width="0.87863" height="5.71762" fill="#fff"/>
    <polygon points="89.642 82.844 88.523 85.615 88.491 85.615 87.342 82.844 86.359 82.844 88.052 86.694 87.166 88.642 88.092 88.642 90.608 82.844 89.642 82.844" fill="#fff"/>
    <path d="M92.444,84.38766a1.30335,1.30335,0,0,1-.44711-.19561.3553.3553,0,0,1,.04744-.61089.79036.79036,0,0,1,.15352-.06161c-.159-.21552-.32286-.42779-.48732-.63957a1.35561,1.35561,0,0,0-.5325.39769.99763.99763,0,0,0-.21121.631,1.01026,1.01026,0,0,0,.31909.76622,1.74971,1.74971,0,0,0,.80651.42372l.48741.11957a1.90546,1.90546,0,0,1,.59073.22355.40014.40014,0,0,1,.19172.35159.37126.37126,0,0,1-.22356.347,1.18793,1.18793,0,0,1-.5511.11568,1.07075,1.07075,0,0,1-.59463-.16767,1.09061,1.09061,0,0,1-.40358-.48676l-.78245.34314a1.66219,1.66219,0,0,0,.631.787,1.98744,1.98744,0,0,0,1.14963.30739,2.18168,2.18168,0,0,0,.84678-.15987,1.41532,1.41532,0,0,0,.60244-.451c.01552-.02064.02108-.04551.035-.06686q-.55974-.952-1.18233-1.861Z" transform="translate(0 0.0061)" fill="#fff"/>
    <path d="M67.785,91.17563v.37527q.45666.34118.878.682V91.17563Z" transform="translate(0 0.0061)" fill="#fff"/>
    <path d="M74.06152,96.40585h.03965v.48741h.86238V94.35353a1.57288,1.57288,0,0,0-.479-1.22566,1.96274,1.96274,0,0,0-1.36536-.43478,2.17975,2.17975,0,0,0-.95857.20731,1.83163,1.83163,0,0,0-.70252.58294l.61477.47116a1.15268,1.15268,0,0,1,.44322-.37563,1.31344,1.31344,0,0,1,.58684-.13517,1.08022,1.08022,0,0,1,.71878.23525.76129.76129,0,0,1,.27944.61089v.208a2.34721,2.34721,0,0,0-.45491-.14817,2.84885,2.84885,0,0,0-.64728-.06759,1.90572,1.90572,0,0,0-1.20162.36718,1.24953,1.24953,0,0,0-.23381.2407q.337.36489.65008.74131a.62884.62884,0,0,1,.22645-.48291,1.11221,1.11221,0,0,1,.72656-.19561,2.00831,2.00831,0,0,1,.50756.06369,1.81609,1.81609,0,0,1,.427.16768,1.1069,1.1069,0,0,1-.14363.55108,1.08334,1.08334,0,0,1-.39967.40748,1.10152,1.10152,0,0,1-.5745.15142,1.01318,1.01318,0,0,1-.27043-.03891c.17949.23635.35439.47494.52039.71783a1.428,1.428,0,0,0,.8282-.56714Z" transform="translate(0 0.0061)" fill="#fff"/>
    <path d="M79.579,94.31389a1.71861,1.71861,0,0,0-.38732-1.186,1.43369,1.43369,0,0,0-1.1295-.43476,1.5336,1.5336,0,0,0-.7389.18715,1.34773,1.34773,0,0,0-.52315.47506h-.03965v-.53485h-.83834v4.07279h.878V94.68952a1.35536,1.35536,0,0,1,.128-.58359,1.08683,1.08683,0,0,1,.35872-.43477.893.893,0,0,1,.5277-.16377.90785.90785,0,0,1,.65053.22355.92811.92811,0,0,1,.23591.70253v2.45979h.878Z" transform="translate(0 0.0061)" fill="#fff"/>
    <path d="M83.939,94.35353a1.57073,1.57073,0,0,0-.479-1.22566,1.96161,1.96161,0,0,0-1.36538-.43477,2.18171,2.18171,0,0,0-.95858.20732,1.83162,1.83162,0,0,0-.70252.58294l.61479.47116a1.15749,1.15749,0,0,1,.44321-.37564,1.31354,1.31354,0,0,1,.58684-.13517,1.079,1.079,0,0,1,.71877.23526.76126.76126,0,0,1,.27944.61089v.208a2.34562,2.34562,0,0,0-.45491-.14817,2.8466,2.8466,0,0,0-.64663-.06759,1.90755,1.90755,0,0,0-1.20227.36718,1.19537,1.19537,0,0,0-.47506.99821,1.34727,1.34727,0,0,0,.19171.71486,1.28069,1.28069,0,0,0,.53486.48675,1.7286,1.7286,0,0,0,.78309.17222,1.50238,1.50238,0,0,0,.73436-.17611,1.37024,1.37024,0,0,0,.49521-.43932h.03964v.48741H83.939Zm-1.006,1.38164a1.08151,1.08151,0,0,1-.399.40748,1.10385,1.10385,0,0,1-.57515.15142A.84481.84481,0,0,1,81.4,96.1147a.57171.57171,0,0,1-.21576-.45945.63414.63414,0,0,1,.23136-.50692,1.11415,1.11415,0,0,1,.72721-.19561,2.00687,2.00687,0,0,1,.5069.06369,1.80535,1.80535,0,0,1,.427.16767,1.10026,1.10026,0,0,1-.14368.55109Z" transform="translate(0 0.0061)" fill="#fff"/>
    <rect x="84.89759" y="91.18173" width="0.87863" height="5.71762" fill="#fff"/>
    <polygon points="89.642 92.826 88.523 95.598 88.491 95.598 87.342 92.826 86.359 92.826 88.052 96.676 87.166 98.624 88.092 98.624 90.608 92.826 89.642 92.826" fill="#fff"/>
    <path d="M93.94908,94.98067a1.92725,1.92725,0,0,0-.90658-.45947l-.59854-.15142a1.30335,1.30335,0,0,1-.44711-.19561.35531.35531,0,0,1,.04744-.6109.94731.94731,0,0,1,.4952-.11956.85734.85734,0,0,1,.84679.47116l.76621-.336a1.34569,1.34569,0,0,0-.62258-.65834,2.1022,2.1022,0,0,0-.99823-.22744,2.031,2.031,0,0,0-.78244.14752,1.36648,1.36648,0,0,0-.57125.41917.99763.99763,0,0,0-.21121.631,1.01024,1.01024,0,0,0,.31909.76622,1.74971,1.74971,0,0,0,.80651.42372l.48741.11958a1.90571,1.90571,0,0,1,.59073.22355.40012.40012,0,0,1,.19172.35159.37127.37127,0,0,1-.22356.347,1.18805,1.18805,0,0,1-.5511.11568,1.07083,1.07083,0,0,1-.59463-.16767,1.09063,1.09063,0,0,1-.40358-.48677l-.78245.34314a1.66216,1.66216,0,0,0,.631.787,1.98736,1.98736,0,0,0,1.14963.30738,2.18185,2.18185,0,0,0,.84678-.15986,1.41534,1.41534,0,0,0,.60244-.451,1.09343,1.09343,0,0,0,.21966-.67523A1.027,1.027,0,0,0,93.94908,94.98067Z" transform="translate(0 0.0061)" fill="#fff"/>
    <path d="M6.6423,106.60539l-.86608.35134a2.075,2.075,0,0,0,.71913-.23732C6.55044,106.68744,6.59138,106.64146,6.6423,106.60539Z" transform="translate(0 0.0061)" fill="#fff"/>
    <path d="M8.37578,105.9532a1.95467,1.95467,0,0,0,.75061.77076,2.141,2.141,0,0,0,1.09017.27944,2.06628,2.06628,0,0,0,1.14184-.30349,1.859,1.859,0,0,0,.70284-.82274l-.79058-.34314a1.08824,1.08824,0,0,1-.41917.49066,1.21655,1.21655,0,0,1-.659.17222,1.13185,1.13185,0,0,1-.60276-.16832,1.1878,1.1878,0,0,1-.41852-.44907l-.81235.32953C8.36607,105.923,8.3683,105.93939,8.37578,105.9532Z" transform="translate(0 0.0061)" fill="#fff"/>
    <polygon points="13.754 106.881 13.754 103.726 12.876 104.083 12.876 106.881 13.754 106.881" fill="#fff"/>
    <path d="M14.71241,103.46547l.61479.47116a1.15506,1.15506,0,0,1,.44321-.37563,1.31372,1.31372,0,0,1,.58717-.13517,1.07873,1.07873,0,0,1,.71844.23525.76157.76157,0,0,1,.27977.6109v.208a2.3496,2.3496,0,0,0-.45524-.14817,2.84761,2.84761,0,0,0-.647-.06759,1.90667,1.90667,0,0,0-1.20195.36718,1.19448,1.19448,0,0,0-.47506.9982,1.3502,1.3502,0,0,0,.19171.71487,1.2777,1.2777,0,0,0,.53518.48676,1.72685,1.72685,0,0,0,.78245.17221,1.5009,1.5009,0,0,0,.73469-.17611,1.37545,1.37545,0,0,0,.4952-.43932h.04v.48741h.86239V104.3357a1.572,1.572,0,0,0-.47929-1.22567,1.96216,1.96216,0,0,0-1.36539-.43476c-.02006,0-.03761.00543-.05747.00589l-1.40232.56887A1.804,1.804,0,0,0,14.71241,103.46547Zm2.49943,2.25183a1.08226,1.08226,0,0,1-.39935.40747,1.10171,1.10171,0,0,1-.57481.15142.84417.84417,0,0,1-.5589-.17936.57076.57076,0,0,1-.21576-.45946.6324.6324,0,0,1,.23168-.5069,1.11151,1.11151,0,0,1,.72657-.19561,2.00666,2.00666,0,0,1,.50723.06369,1.81879,1.81879,0,0,1,.42729.16767A1.10392,1.10392,0,0,1,17.21184,105.7173Z" transform="translate(0 0.0061)" fill="#fff"/>
    <polygon points="20.055 106.881 20.055 101.17 19.176 101.527 19.176 106.881 20.055 106.881" fill="#fff"/>
    <path d="M79.579,104.296a1.7186,1.7186,0,0,0-.38732-1.186,1.4337,1.4337,0,0,0-1.1295-.43477,1.53372,1.53372,0,0,0-.7389.18716,1.34766,1.34766,0,0,0-.52315.47506h-.03965v-.53485h-.83834v.66311a20.3949,20.3949,0,0,1,.35695,3.40967h.521v-2.20374a1.3555,1.3555,0,0,1,.128-.58359,1.08677,1.08677,0,0,1,.35873-.43477.89305.89305,0,0,1,.5277-.16375.90781.90781,0,0,1,.65053.22354.92818.92818,0,0,1,.2359.70253v2.45979h.878Z" transform="translate(0 0.0061)" fill="#fff"/>
    <path d="M83.939,104.33566A1.57073,1.57073,0,0,0,83.46,103.11a1.96161,1.96161,0,0,0-1.36538-.43477,2.182,2.182,0,0,0-.95858.20731,1.83171,1.83171,0,0,0-.70252.58294l.61479.47116a1.15738,1.15738,0,0,1,.44321-.37563,1.31341,1.31341,0,0,1,.58684-.13517,1.07907,1.07907,0,0,1,.71877.23525.76128.76128,0,0,1,.27944.6109v.208a2.34562,2.34562,0,0,0-.45491-.14817,2.8466,2.8466,0,0,0-.64663-.06759,1.90763,1.90763,0,0,0-1.20227.36718,1.19536,1.19536,0,0,0-.47506.9982,1.3473,1.3473,0,0,0,.19171.71487,1.28071,1.28071,0,0,0,.53486.48676,1.72872,1.72872,0,0,0,.78309.17221,1.50227,1.50227,0,0,0,.73436-.17611,1.37006,1.37006,0,0,0,.49521-.43932h.03964v.48741H83.939Zm-1.006,1.38164a1.08163,1.08163,0,0,1-.399.40747,1.104,1.104,0,0,1-.57515.15142.84481.84481,0,0,1-.55889-.17937.57171.57171,0,0,1-.21576-.45946.63406.63406,0,0,1,.23136-.50689,1.11408,1.11408,0,0,1,.72721-.19562,2.00642,2.00642,0,0,1,.5069.06369,1.80492,1.80492,0,0,1,.427.16767,1.10028,1.10028,0,0,1-.14368.55109Z" transform="translate(0 0.0061)" fill="#fff"/>
    <rect x="84.89759" y="101.16386" width="0.87863" height="5.71762" fill="#fff"/>
    <polygon points="89.642 102.809 88.523 105.58 88.491 105.58 87.342 102.809 86.359 102.809 88.052 106.658 87.166 108.606 88.092 108.606 90.608 102.809 89.642 102.809" fill="#fff"/>
    <path d="M93.94908,104.96279a1.92735,1.92735,0,0,0-.90658-.45948l-.59854-.15142a1.303,1.303,0,0,1-.44711-.19561.3553.3553,0,0,1,.04744-.61089.94742.94742,0,0,1,.4952-.11957.85734.85734,0,0,1,.84679.47116l.76621-.336a1.34563,1.34563,0,0,0-.62258-.65831,2.10206,2.10206,0,0,0-.99823-.22747,2.031,2.031,0,0,0-.78244.14753,1.36652,1.36652,0,0,0-.57125.41916.99766.99766,0,0,0-.21121.631,1.01022,1.01022,0,0,0,.31909.76621,1.74952,1.74952,0,0,0,.80651.42372l.48741.11959a1.90546,1.90546,0,0,1,.59073.22355.40012.40012,0,0,1,.19172.35159.37127.37127,0,0,1-.22356.347,1.18805,1.18805,0,0,1-.5511.11568,1.07084,1.07084,0,0,1-.59463-.16768,1.09055,1.09055,0,0,1-.40358-.48676l-.78245.34314a1.66209,1.66209,0,0,0,.631.787,1.98729,1.98729,0,0,0,1.14963.30739,2.18185,2.18185,0,0,0,.84678-.15986,1.41534,1.41534,0,0,0,.60244-.451,1.09344,1.09344,0,0,0,.21966-.67522A1.027,1.027,0,0,0,93.94908,104.96279Z" transform="translate(0 0.0061)" fill="#fff"/>
    <path d="M.29646,113.76229a.3668.3668,0,0,1,.17778-.23475.94578.94578,0,0,1,.49521-.11959.85719.85719,0,0,1,.84647.47116l.76653-.336a1.34623,1.34623,0,0,0-.62291-.65832,2.10385,2.10385,0,0,0-.99821-.22746,2.03108,2.03108,0,0,0-.78246.14752A1.52178,1.52178,0,0,0,0,112.904Q.146,113.33531.29646,113.76229Z" transform="translate(0 0.0061)" fill="#fff"/>
    <path d="M2.46677,116.37464a1.09321,1.09321,0,0,0,.21933-.67522,1.02569,1.02569,0,0,0-.30739-.75451,1.9292,1.9292,0,0,0-.90625-.45946L.87359,114.334a1.30477,1.30477,0,0,1-.44719-.19545c.11815.32742.24212.6493.3647.97251l.218.05349a1.90137,1.90137,0,0,1,.59107.22355.4008.4008,0,0,1,.19171.35158.37125.37125,0,0,1-.22356.347,1.07606,1.07606,0,0,1-.36157.09757c.10008.24984.20048.49927.30329.7465a2.01028,2.01028,0,0,0,.35365-.10515A1.41947,1.41947,0,0,0,2.46677,116.37464Z" transform="translate(0 0.0061)" fill="#fff"/>
    <path d="M6.49536,112.94459a2.12674,2.12674,0,0,0-1.10187-.28725,2.14881,2.14881,0,0,0-1.10219.28335,1.99267,1.99267,0,0,0-.75873.77855,2.373,2.373,0,0,0,0,2.20374,1.98831,1.98831,0,0,0,.75873.77855,2.14926,2.14926,0,0,0,1.10219.284,2.14985,2.14985,0,0,0,1.10187-.284,1.99059,1.99059,0,0,0,.75873-.77855,2.35714,2.35714,0,0,0,0-2.19593A2.02238,2.02238,0,0,0,6.49536,112.94459Zm-.01982,2.5995a1.20748,1.20748,0,0,1-.45946.47116,1.26592,1.26592,0,0,1-1.2455,0,1.20748,1.20748,0,0,1-.45946-.47116,1.46029,1.46029,0,0,1-.17157-.72267,1.43645,1.43645,0,0,1,.17157-.71876,1.21009,1.21009,0,0,1,.45946-.46726,1.26592,1.26592,0,0,1,1.2455,0,1.21009,1.21009,0,0,1,.45946.46726,1.43645,1.43645,0,0,1,.17157.71876A1.46029,1.46029,0,0,1,6.47554,115.54409Z" transform="translate(0 0.0061)" fill="#fff"/>
    <path d="M9.58975,113.63931a1.13694,1.13694,0,0,1,.60276-.16767,1.01746,1.01746,0,0,1,1.03006.64663l.80682-.33535a1.67237,1.67237,0,0,0-.671-.82274,2.066,2.066,0,0,0-1.14184-.30284,2.13447,2.13447,0,0,0-1.09017.27945,1.95286,1.95286,0,0,0-.75061.7701,2.45492,2.45492,0,0,0,0,2.22843,1.9546,1.9546,0,0,0,.75061.77076,2.14094,2.14094,0,0,0,1.09017.27945,2.06621,2.06621,0,0,0,1.14184-.3035,1.859,1.859,0,0,0,.70284-.82274l-.79058-.34314a1.08822,1.08822,0,0,1-.41917.49067,1.21654,1.21654,0,0,1-.659.17221,1.13167,1.13167,0,0,1-.60276-.16832,1.19439,1.19439,0,0,1-.43931-.479,1.50267,1.50267,0,0,1-.16377-.71032,1.48207,1.48207,0,0,1,.16377-.70706A1.20454,1.20454,0,0,1,9.58975,113.63931Z" transform="translate(0 0.0061)" fill="#fff"/>
    <rect x="12.87554" y="112.79082" width="0.87863" height="4.07278" fill="#fff"/>
    <path d="M13.734,111.18342a.59782.59782,0,1,0,.1719.41917A.5702.5702,0,0,0,13.734,111.18342Z" transform="translate(0 0.0061)" fill="#fff"/>
    <path d="M16.90055,114.31388a2.84874,2.84874,0,0,0-.647-.06759,1.90673,1.90673,0,0,0-1.20195.36718,1.19451,1.19451,0,0,0-.47506.99821,1.3502,1.3502,0,0,0,.19171.71487,1.27777,1.27777,0,0,0,.53518.48676,1.72673,1.72673,0,0,0,.78245.17222,1.50091,1.50091,0,0,0,.73469-.17612,1.37545,1.37545,0,0,0,.4952-.43932h.04v.48741h.86239v-2.53972a1.572,1.572,0,0,0-.47929-1.22567,1.96221,1.96221,0,0,0-1.36539-.43477,2.17843,2.17843,0,0,0-.95824.20732,1.83243,1.83243,0,0,0-.70285.58294l.61479.47116a1.15509,1.15509,0,0,1,.44321-.37564,1.314,1.314,0,0,1,.58717-.13517,1.07869,1.07869,0,0,1,.71844.23526.76155.76155,0,0,1,.27977.61089v.208A2.35093,2.35093,0,0,0,16.90055,114.31388Zm.31129,1.38554a1.08218,1.08218,0,0,1-.39935.40747,1.1018,1.1018,0,0,1-.57481.15142.84424.84424,0,0,1-.5589-.17936.57078.57078,0,0,1-.21576-.45947.6324.6324,0,0,1,.23168-.5069,1.11158,1.11158,0,0,1,.72657-.19562,2.00756,2.00756,0,0,1,.50723.06369,1.81926,1.81926,0,0,1,.42729.16768A1.104,1.104,0,0,1,17.21184,115.69942Z" transform="translate(0 0.0061)" fill="#fff"/>
    <rect x="19.17643" y="111.14597" width="0.87831" height="5.71762" fill="#fff"/>
    <path d="M24.35108,112.84061a1.3747,1.3747,0,0,0-.51926.479h-.04v-.53486h-.83835v4.07278h.87831v-2.19594a1.33543,1.33543,0,0,1,.26775-.84678.82884.82884,0,0,1,.6827-.34314q.81444,0,.81462.92608v2.45979h.87831V114.6616a1.50443,1.50443,0,0,1,.03591-.24533c-.38177-.557-.73928-1.13533-1.09415-1.716a1.60072,1.60072,0,0,0-.34713-.0429A1.4753,1.4753,0,0,0,24.35108,112.84061Z" transform="translate(0 0.0061)" fill="#fff"/>
    <path d="M28.23214,116.8575h.10943c-.03558-.04391-.074-.08526-.10943-.12933Z" transform="translate(0 0.0061)" fill="#fff"/>
    <path d="M74.96355,114.77261a16.85345,16.85345,0,0,1-.86238,1.83432v.25057h.86238Z" transform="translate(0 0.0061)" fill="#fff"/>
    <path d="M79.579,114.27814a1.71861,1.71861,0,0,0-.38732-1.186,1.43373,1.43373,0,0,0-1.1295-.43477,1.53372,1.53372,0,0,0-.7389.18716,1.34761,1.34761,0,0,0-.52315.47507h-.03965v-.53485h-.83834v4.07277h.878v-2.20374a1.35536,1.35536,0,0,1,.128-.58359,1.08673,1.08673,0,0,1,.35872-.43476.8931.8931,0,0,1,.5277-.16377.9078.9078,0,0,1,.65053.22355.92812.92812,0,0,1,.23591.70252v2.45979h.878Z" transform="translate(0 0.0061)" fill="#fff"/>
    <path d="M83.939,114.31778a1.57075,1.57075,0,0,0-.479-1.22567,1.96161,1.96161,0,0,0-1.36538-.43477,2.18185,2.18185,0,0,0-.95858.20732,1.83162,1.83162,0,0,0-.70252.58294l.61479.47116a1.15749,1.15749,0,0,1,.44321-.37564,1.31354,1.31354,0,0,1,.58684-.13517,1.079,1.079,0,0,1,.71877.23526.76126.76126,0,0,1,.27944.61089v.208a2.34562,2.34562,0,0,0-.45491-.14817,2.84774,2.84774,0,0,0-.64663-.06759,1.90769,1.90769,0,0,0-1.20227.36718,1.19537,1.19537,0,0,0-.47506.99821,1.34727,1.34727,0,0,0,.19171.71486,1.2808,1.2808,0,0,0,.53486.48677,1.7286,1.7286,0,0,0,.78309.17222,1.50239,1.50239,0,0,0,.73436-.17612,1.37024,1.37024,0,0,0,.49521-.43932h.03964v.48741H83.939Zm-1.006,1.38164a1.08156,1.08156,0,0,1-.399.40747,1.10385,1.10385,0,0,1-.57515.15142A.84475.84475,0,0,1,81.4,116.079a.57173.57173,0,0,1-.21576-.45947.6341.6341,0,0,1,.23136-.5069,1.1142,1.1142,0,0,1,.72721-.19562,2.00687,2.00687,0,0,1,.5069.06369,1.805,1.805,0,0,1,.427.16768,1.10031,1.10031,0,0,1-.14368.55109Z" transform="translate(0 0.0061)" fill="#fff"/>
    <rect x="84.89759" y="111.14597" width="0.87863" height="5.71762" fill="#fff"/>
    <polygon points="89.642 112.791 88.523 115.562 88.491 115.562 87.342 112.791 86.359 112.791 88.052 116.64 87.166 118.588 88.092 118.588 90.608 112.791 89.642 112.791" fill="#fff"/>
    <path d="M93.94908,114.94491a1.92732,1.92732,0,0,0-.90658-.45946L92.444,114.334a1.30316,1.30316,0,0,1-.44711-.19561.35529.35529,0,0,1,.04744-.61088.94734.94734,0,0,1,.4952-.11959.85734.85734,0,0,1,.84679.47116l.76621-.336a1.34561,1.34561,0,0,0-.62258-.65832,2.10205,2.10205,0,0,0-.99823-.22746,2.031,2.031,0,0,0-.78244.14752,1.36652,1.36652,0,0,0-.57125.41916.99768.99768,0,0,0-.21121.631,1.01019,1.01019,0,0,0,.31909.76621,1.74954,1.74954,0,0,0,.80651.42373l.48741.11958a1.90571,1.90571,0,0,1,.59073.22355.40014.40014,0,0,1,.19172.35158.37126.37126,0,0,1-.22356.347,1.18805,1.18805,0,0,1-.5511.11568,1.07075,1.07075,0,0,1-.59463-.16767,1.09053,1.09053,0,0,1-.40358-.48675l-.78245.34313a1.66216,1.66216,0,0,0,.631.787,1.98735,1.98735,0,0,0,1.14963.3074,2.18168,2.18168,0,0,0,.84678-.15987,1.41532,1.41532,0,0,0,.60244-.451,1.09344,1.09344,0,0,0,.21966-.67522A1.027,1.027,0,0,0,93.94908,114.94491Z" transform="translate(0 0.0061)" fill="#fff"/>
    <path d="M7.25409,125.90509a2.35716,2.35716,0,0,0,0-2.19594,2.0224,2.0224,0,0,0-.75873-.78244,2.12664,2.12664,0,0,0-1.10187-.28725,2.15808,2.15808,0,0,0-1.00654.24415c.136.24338.28026.47888.41946.71921a1.24827,1.24827,0,0,1,1.20967.01471,1.21,1.21,0,0,1,.45946.46726,1.43645,1.43645,0,0,1,.17157.71876,1.46034,1.46034,0,0,1-.17157.72267,1.2361,1.2361,0,0,1-.28477.33622c.15191.23445.2974.475.45264.7063A1.983,1.983,0,0,0,7.25409,125.90509Z" transform="translate(0 0.0061)" fill="#fff"/>
    <path d="M9.58975,123.62143a1.13694,1.13694,0,0,1,.60276-.16767,1.01747,1.01747,0,0,1,1.03006.64663l.80682-.33534a1.67239,1.67239,0,0,0-.671-.82275,2.066,2.066,0,0,0-1.14184-.30284,2.13447,2.13447,0,0,0-1.09017.27945,1.95306,1.95306,0,0,0-.75061.7701,2.45494,2.45494,0,0,0,0,2.22844,1.95458,1.95458,0,0,0,.75061.77075,2.14084,2.14084,0,0,0,1.09017.27945,2.06611,2.06611,0,0,0,1.14184-.30349,1.859,1.859,0,0,0,.70284-.82274l-.79058-.34314a1.08824,1.08824,0,0,1-.41917.49066,1.21663,1.21663,0,0,1-.659.17222,1.13185,1.13185,0,0,1-.60276-.16832,1.19435,1.19435,0,0,1-.43931-.479,1.50267,1.50267,0,0,1-.16377-.71032,1.4821,1.4821,0,0,1,.16377-.70706A1.20482,1.20482,0,0,1,9.58975,123.62143Z" transform="translate(0 0.0061)" fill="#fff"/>
    <path d="M13.734,121.16554a.59781.59781,0,1,0,.1719.41916A.57018.57018,0,0,0,13.734,121.16554Z" transform="translate(0 0.0061)" fill="#fff"/>
    <rect x="12.87554" y="122.77294" width="0.87863" height="4.07278" fill="#fff"/>
    <path d="M18.21818,126.83962V124.2999a1.572,1.572,0,0,0-.47929-1.22567,1.9621,1.9621,0,0,0-1.36539-.43477,2.17828,2.17828,0,0,0-.95824.20731,1.83284,1.83284,0,0,0-.70285.58294l.61479.47116a1.15506,1.15506,0,0,1,.44321-.37563,1.31386,1.31386,0,0,1,.58717-.13517,1.07874,1.07874,0,0,1,.71844.23526.76155.76155,0,0,1,.27977.61088v.208a2.3505,2.3505,0,0,0-.45524-.14817,2.84761,2.84761,0,0,0-.647-.06759,1.90667,1.90667,0,0,0-1.20195.36718,1.19452,1.19452,0,0,0-.47506.99822,1.35014,1.35014,0,0,0,.19171.71486,1.2777,1.2777,0,0,0,.53518.48676,1.72661,1.72661,0,0,0,.78245.17223,1.50093,1.50093,0,0,0,.73469-.17612,1.37553,1.37553,0,0,0,.4952-.43932h.04v.48741Zm-1.00634-1.15808a1.08226,1.08226,0,0,1-.39935.40747,1.1018,1.1018,0,0,1-.57481.15142.84422.84422,0,0,1-.5589-.17936.57079.57079,0,0,1-.21576-.45947.63239.63239,0,0,1,.23168-.5069,1.11151,1.11151,0,0,1,.72657-.19561,2.0071,2.0071,0,0,1,.50723.06368,1.82009,1.82009,0,0,1,.42729.16767A1.104,1.104,0,0,1,17.21184,125.68154Z" transform="translate(0 0.0061)" fill="#fff"/>
    <rect x="19.17643" y="121.1281" width="0.87831" height="5.71762" fill="#fff"/>
    <path d="M29.11045,124.22841a1.73567,1.73567,0,0,0-.36328-1.162,1.32264,1.32264,0,0,0-1.06612-.427,1.55215,1.55215,0,0,0-1.37352.74215,1.16827,1.16827,0,0,0-.47116-.53875,1.42173,1.42173,0,0,0-.76653-.2034,1.47528,1.47528,0,0,0-.71876.18327,1.37477,1.37477,0,0,0-.51926.479h-.04v-.53485h-.83835v4.07277h.87831v-2.19594a1.33543,1.33543,0,0,1,.26775-.84678.8288.8288,0,0,1,.6827-.34313q.81444,0,.81462.92607v2.45979h.87831v-2.19594a1.32419,1.32419,0,0,1,.27132-.84678.84791.84791,0,0,1,.69505-.34314q.79057,0,.79057.92607v2.4598h.8783Z" transform="translate(0 0.0061)" fill="#fff"/>
    <path d="M33.67422,123.65327a1.7815,1.7815,0,0,0-.6866-.74281,2.03211,2.03211,0,0,0-1.06612-.271,1.91716,1.91716,0,0,0-1.0541.29505,2.04143,2.04143,0,0,0-.723.7948,2.31212,2.31212,0,0,0-.2593,1.082,2.2737,2.2737,0,0,0,.26742,1.10609,1.97066,1.97066,0,0,0,.74281.77076,2.24348,2.24348,0,0,0,2.18392-.00845,2.1892,2.1892,0,0,0,.75061-.79025l-.74249-.35158a1.2898,1.2898,0,0,1-.44322.46726,1.20651,1.20651,0,0,1-.65085.17157,1.22585,1.22585,0,0,1-.82664-.3074,1.2399,1.2399,0,0,1-.40325-.87474h3.12234a2.04671,2.04671,0,0,0,.024-.27945A2.34453,2.34453,0,0,0,33.67422,123.65327Zm-2.87083.67067a1.30283,1.30283,0,0,1,.40325-.67457,1.056,1.056,0,0,1,.71486-.2515,1.1558,1.1558,0,0,1,.595.14362.977.977,0,0,1,.36329.35548,1.01873,1.01873,0,0,1,.13582.427Z" transform="translate(0 0.0061)" fill="#fff"/>
    <path d="M38.66106,125.14933q-.42612-.19971-.84594-.41409c.00093.02368.0076.04415.0076.06831a1.47412,1.47412,0,0,1-.16767.71032,1.22641,1.22641,0,0,1-.44322.479,1.11979,1.11979,0,0,1-.595.16832,1.14,1.14,0,0,1-.59919-.16832,1.21423,1.21423,0,0,1-.44712-.479,1.474,1.474,0,0,1-.16766-.71032,1.454,1.454,0,0,1,.16766-.70706,1.23332,1.23332,0,0,1,.36694-.41044c-.25954-.15971-.51462-.32981-.77014-.49878a2.04186,2.04186,0,0,0-.38347.50174,2.52352,2.52352,0,0,0,0,2.22844,1.98107,1.98107,0,0,0,.70674.77075,1.8497,1.8497,0,0,0,.99821.27945,1.56564,1.56564,0,0,0,.77466-.19171,1.43168,1.43168,0,0,0,.51925-.46337h.04v.52705h.83834Z" transform="translate(0 0.0061)" fill="#fff"/>
    <path d="M39.747,126.83962h.87864v-.85568c-.29582-.11106-.58721-.23234-.87864-.35358Z" transform="translate(0 0.0061)" fill="#fff"/>
    <path d="M42.175,126.79543a1.72673,1.72673,0,0,0,.78245.17222,1.56193,1.56193,0,0,0,.52-.09362c-.60885-.15564-1.21068-.32753-1.80247-.5225A1.27779,1.27779,0,0,0,42.175,126.79543Z" transform="translate(0 0.0061)" fill="#fff"/>
    <path d="M60.98078,126.83962v-.42291c-.28964.08854-.58326.1705-.878.25061v.1723Z" transform="translate(0 0.0061)" fill="#fff"/>
    <path d="M63.7603,125.40109c-.29042.124-.58245.24516-.87864.35954v1.079h.87864Z" transform="translate(0 0.0061)" fill="#fff"/>
    <path d="M68.663,122.66225q-.41662.29488-.84285.5738l.00451.06564H67.785c-.00641-.01016-.01706-.01816-.02384-.02815-.18152.11759-.36328.23477-.54756.34781l.00016.00007a1.23294,1.23294,0,0,1,.44322.47506,1.45425,1.45425,0,0,1,.16767.70707,1.47426,1.47426,0,0,1-.16767.71032,1.22179,1.22179,0,0,1-.44322.479,1.11959,1.11959,0,0,1-.59464.16832,1.14,1.14,0,0,1-.59919-.16832,1.212,1.212,0,0,1-.44712-.479,1.47426,1.47426,0,0,1-.16767-.71032,1.6229,1.6229,0,0,1,.02027-.18213q-.43134.22038-.87222.42486a2.28768,2.28768,0,0,0,.23262.87116,1.98206,1.98206,0,0,0,.70706.77076,1.84994,1.84994,0,0,0,.99823.27945,1.56651,1.56651,0,0,0,.77465-.19171,1.437,1.437,0,0,0,.51925-.46337h.03964v.52705H68.663Z" transform="translate(0 0.0061)" fill="#fff"/>
    <path d="M74.96355,124.2999a1.573,1.573,0,0,0-.479-1.22567,1.96274,1.96274,0,0,0-1.36539-.43477,2.17975,2.17975,0,0,0-.95857.20731,1.83172,1.83172,0,0,0-.70252.58294l.61477.47116a1.15293,1.15293,0,0,1,.44322-.37563,1.31344,1.31344,0,0,1,.58684-.13517,1.08023,1.08023,0,0,1,.71878.23526.7613.7613,0,0,1,.27944.61088v.208a2.34675,2.34675,0,0,0-.45491-.14817,2.84891,2.84891,0,0,0-.64728-.06759,1.9056,1.9056,0,0,0-1.20162.36718,1.19366,1.19366,0,0,0-.47506.99822,1.34706,1.34706,0,0,0,.19171.71486,1.27688,1.27688,0,0,0,.53485.48676,1.72794,1.72794,0,0,0,.78245.17223,1.50315,1.50315,0,0,0,.735-.17612,1.38094,1.38094,0,0,0,.49521-.43932h.03964v.48741h.86239Zm-1.006,1.38164a1.08327,1.08327,0,0,1-.39968.40747,1.10152,1.10152,0,0,1-.5745.15142.84361.84361,0,0,1-.55889-.17936.56987.56987,0,0,1-.21576-.45947.63209.63209,0,0,1,.23136-.5069,1.11206,1.11206,0,0,1,.72657-.19561,2.00777,2.00777,0,0,1,.50755.06368,1.8171,1.8171,0,0,1,.427.16767,1.10706,1.10706,0,0,1-.14367.5511Z" transform="translate(0 0.0061)" fill="#fff"/>
    <path d="M79.579,124.26026a1.71858,1.71858,0,0,0-.38732-1.186,1.4337,1.4337,0,0,0-1.1295-.43477,1.53356,1.53356,0,0,0-.7389.18717,1.34752,1.34752,0,0,0-.52315.47506h-.03965v-.53485h-.83834v4.07278h.878v-2.20376a1.35536,1.35536,0,0,1,.128-.58359,1.08668,1.08668,0,0,1,.35872-.43477.8931.8931,0,0,1,.5277-.16377.90771.90771,0,0,1,.65053.22356.92808.92808,0,0,1,.23591.7025v2.4598h.878Z" transform="translate(0 0.0061)" fill="#fff"/>
    <path d="M83.939,124.2999a1.57075,1.57075,0,0,0-.479-1.22567,1.96161,1.96161,0,0,0-1.36538-.43477,2.182,2.182,0,0,0-.95858.20731,1.83179,1.83179,0,0,0-.70252.58294l.61479.47116a1.15756,1.15756,0,0,1,.44321-.37563,1.31341,1.31341,0,0,1,.58684-.13517,1.079,1.079,0,0,1,.71877.23526.76127.76127,0,0,1,.27944.61088v.208a2.34562,2.34562,0,0,0-.45491-.14817,2.84717,2.84717,0,0,0-.64663-.06759,1.90763,1.90763,0,0,0-1.20227.36718,1.1954,1.1954,0,0,0-.47506.99822,1.34716,1.34716,0,0,0,.19171.71486,1.28071,1.28071,0,0,0,.53486.48676,1.72848,1.72848,0,0,0,.78309.17223,1.50239,1.50239,0,0,0,.73436-.17612,1.37015,1.37015,0,0,0,.49521-.43932h.03964v.48741H83.939Zm-1.006,1.38164a1.08156,1.08156,0,0,1-.399.40747,1.10385,1.10385,0,0,1-.57515.15142.84486.84486,0,0,1-.55889-.17936.57176.57176,0,0,1-.21576-.45947.63408.63408,0,0,1,.23136-.5069,1.11407,1.11407,0,0,1,.72721-.19561,2.00641,2.00641,0,0,1,.5069.06368,1.80654,1.80654,0,0,1,.427.16767,1.10032,1.10032,0,0,1-.14368.5511Z" transform="translate(0 0.0061)" fill="#fff"/>
    <rect x="84.89759" y="121.1281" width="0.87863" height="5.71762" fill="#fff"/>
    <polygon points="88.092 128.57 90.608 122.773 89.642 122.773 88.523 125.544 88.491 125.544 87.342 122.773 86.359 122.773 88.052 126.622 87.166 128.57 88.092 128.57" fill="#fff"/>
    <path d="M93.13868,126.06887a1.188,1.188,0,0,1-.5511.11567,1.07084,1.07084,0,0,1-.59463-.16766,1.09061,1.09061,0,0,1-.40358-.48676l-.78245.34313a1.66219,1.66219,0,0,0,.631.787,1.98718,1.98718,0,0,0,1.14963.3074,2.18185,2.18185,0,0,0,.84678-.15986,1.41534,1.41534,0,0,0,.60244-.451,1.0934,1.0934,0,0,0,.21966-.67522,1.027,1.027,0,0,0-.30739-.7545,1.92723,1.92723,0,0,0-.90658-.45946l-.59854-.15142a1.303,1.303,0,0,1-.44711-.19562.35529.35529,0,0,1,.04744-.61088.94733.94733,0,0,1,.4952-.11958.85733.85733,0,0,1,.84679.47116l.76621-.336a1.3456,1.3456,0,0,0-.62258-.65832,2.102,2.102,0,0,0-.99822-.22746,2.031,2.031,0,0,0-.78245.14752,1.36663,1.36663,0,0,0-.57125.41917.99764.99764,0,0,0-.21121.631,1.01021,1.01021,0,0,0,.31909.76619,1.74943,1.74943,0,0,0,.80651.42372l.48741.11959a1.90562,1.90562,0,0,1,.59073.22355.40012.40012,0,0,1,.19172.35158A.37126.37126,0,0,1,93.13868,126.06887Z" transform="translate(0 0.0061)" fill="#fff"/>
    <path d="M12.87553,132.749v1.3753c.29127.29021.57994.58286.87864.866V132.749Z" transform="translate(0 0.0061)" fill="#fff"/>
    <path d="M13.31485,132.15822a.58586.58586,0,1,0-.41917-.17157A.57022.57022,0,0,0,13.31485,132.15822Z" transform="translate(0 0.0061)" fill="#fff"/>
    <path d="M16.82062,136.77365a1.37542,1.37542,0,0,0,.4952-.43931h.04v.48741h.86239V134.282a1.572,1.572,0,0,0-.47929-1.22568,1.96232,1.96232,0,0,0-1.36539-.43477,2.17842,2.17842,0,0,0-.95824.20731,1.83269,1.83269,0,0,0-.70285.583l.61479.47117a1.155,1.155,0,0,1,.44321-.37562,1.31373,1.31373,0,0,1,.58717-.13518,1.07874,1.07874,0,0,1,.71844.23526.76154.76154,0,0,1,.27977.61089v.208a2.34979,2.34979,0,0,0-.45524-.14816,2.84762,2.84762,0,0,0-.647-.0676,1.90674,1.90674,0,0,0-1.20195.36719,1.19451,1.19451,0,0,0-.47506.99821,1.44618,1.44618,0,0,0,.02368.18672q.65989.59718,1.343,1.17226c.04842.0034.09237.01488.14265.01488A1.50085,1.50085,0,0,0,16.82062,136.77365Zm-1.3576-1.18992a.63238.63238,0,0,1,.23168-.50691,1.11163,1.11163,0,0,1,.72657-.19561,2.00711,2.00711,0,0,1,.50723.06369,1.81966,1.81966,0,0,1,.42729.16767,1.10391,1.10391,0,0,1-.144.5511,1.08218,1.08218,0,0,1-.39935.40747,1.10172,1.10172,0,0,1-.57481.15143.8443.8443,0,0,1-.5589-.17937A.5708.5708,0,0,1,15.463,135.58373Z" transform="translate(0 0.0061)" fill="#fff"/>
    <rect x="19.17643" y="131.11023" width="0.87831" height="5.71762" fill="#fff"/>
    <path d="M29.11045,136.82173v-2.6112a1.73567,1.73567,0,0,0-.36328-1.162,1.32265,1.32265,0,0,0-1.06612-.427,1.55218,1.55218,0,0,0-1.37352.74216,1.16825,1.16825,0,0,0-.47116-.53876,1.42157,1.42157,0,0,0-.76653-.20341,1.47528,1.47528,0,0,0-.71876.18327,1.37487,1.37487,0,0,0-.51926.479h-.04v-.53486h-.83835v4.07279h.87831V134.6258a1.33538,1.33538,0,0,1,.26775-.84679.82887.82887,0,0,1,.6827-.34314q.81444,0,.81462.92609v2.45977h.87831v-2.19592a1.32418,1.32418,0,0,1,.27132-.84679.8479.8479,0,0,1,.69505-.34313q.79057,0,.79057.92608v2.45978Z" transform="translate(0 0.0061)" fill="#fff"/>
    <path d="M33.9098,134.69728a2.34444,2.34444,0,0,0-.23558-1.0619,1.7815,1.7815,0,0,0-.6866-.74281,2.0321,2.0321,0,0,0-1.06612-.271,1.91715,1.91715,0,0,0-1.0541.295,2.04143,2.04143,0,0,0-.723.7948,2.3121,2.3121,0,0,0-.2593,1.082,2.27374,2.27374,0,0,0,.26742,1.1061,1.97077,1.97077,0,0,0,.74281.77075,2.24348,2.24348,0,0,0,2.18392-.00845,2.1893,2.1893,0,0,0,.75061-.79026l-.74249-.35157a1.28977,1.28977,0,0,1-.44322.46725,1.20651,1.20651,0,0,1-.65085.17157,1.226,1.226,0,0,1-.82664-.30739,1.23986,1.23986,0,0,1-.40325-.87474h3.12234A2.04748,2.04748,0,0,0,33.9098,134.69728Zm-3.10641-.39122a1.30283,1.30283,0,0,1,.40325-.67457,1.056,1.056,0,0,1,.71486-.2515,1.1557,1.1557,0,0,1,.595.14362.97691.97691,0,0,1,.36329.35548,1.01878,1.01878,0,0,1,.13582.427Z" transform="translate(0 0.0061)" fill="#fff"/>
    <path d="M38.66106,131.10408h-.87831v1.6052l.04.57449h-.04a1.40849,1.40849,0,0,0-.51925-.47116,1.56542,1.56542,0,0,0-.77466-.19107,1.84431,1.84431,0,0,0-.99821.27945,1.97921,1.97921,0,0,0-.70674.77011,2.52355,2.52355,0,0,0,0,2.22842,1.981,1.981,0,0,0,.70674.77076,1.84981,1.84981,0,0,0,.99821.27945,1.56582,1.56582,0,0,0,.77466-.19173,1.43168,1.43168,0,0,0,.51925-.46337h.04v.527h.83834Zm-1.006,4.39188a1.22648,1.22648,0,0,1-.44322.479,1.1197,1.1197,0,0,1-.595.16832,1.14,1.14,0,0,1-.59919-.16832,1.21416,1.21416,0,0,1-.44712-.479,1.4741,1.4741,0,0,1-.16766-.71031,1.45405,1.45405,0,0,1,.16766-.70708,1.22519,1.22519,0,0,1,.44712-.47507,1.14543,1.14543,0,0,1,.59919-.16766,1.12509,1.12509,0,0,1,.595.16766,1.23763,1.23763,0,0,1,.44322.47507,1.45406,1.45406,0,0,1,.16767.70708,1.474,1.474,0,0,1-.16768.71034Z" transform="translate(0 0.0061)" fill="#fff"/>
    <path d="M40.60549,131.14766a.59783.59783,0,1,0,.17189.41918A.57022.57022,0,0,0,40.60549,131.14766Z" transform="translate(0 0.0061)" fill="#fff"/>
    <rect x="39.74701" y="132.75507" width="0.87863" height="4.07278" fill="#fff"/>
    <path d="M45.08965,134.282a1.572,1.572,0,0,0-.47929-1.22568,1.96228,1.96228,0,0,0-1.36539-.43477,2.17818,2.17818,0,0,0-.95825.20731,1.83256,1.83256,0,0,0-.70284.58294l.61479.47118a1.15515,1.15515,0,0,1,.44321-.37563,1.31386,1.31386,0,0,1,.58717-.13517,1.07858,1.07858,0,0,1,.71844.23526.76153.76153,0,0,1,.27977.61088v.208a2.35106,2.35106,0,0,0-.45523-.14816,2.84875,2.84875,0,0,0-.647-.0676,1.9067,1.9067,0,0,0-1.202.36719,1.19452,1.19452,0,0,0-.47506.99822,1.35019,1.35019,0,0,0,.19171.71486,1.27769,1.27769,0,0,0,.53518.48675,1.72658,1.72658,0,0,0,.78245.17223,1.501,1.501,0,0,0,.73469-.17612,1.37545,1.37545,0,0,0,.4952-.43932h.04v.48742h.86239Zm-1.00635,1.38163a1.0824,1.0824,0,0,1-.39935.40747,1.10162,1.10162,0,0,1-.57481.15143.84424.84424,0,0,1-.5589-.17936.57081.57081,0,0,1-.21576-.45946.63238.63238,0,0,1,.23169-.50691,1.1116,1.1116,0,0,1,.72657-.19561,2.007,2.007,0,0,1,.50722.06369,1.81973,1.81973,0,0,1,.4273.16767A1.104,1.104,0,0,1,44.0833,135.66365Z" transform="translate(0 0.0061)" fill="#fff"/>
    <path d="M48.755,136.2947h.04a1.42892,1.42892,0,0,0,.51925.46336,1.56467,1.56467,0,0,0,.77465.19173,1.84981,1.84981,0,0,0,.99821-.27945,1.98035,1.98035,0,0,0,.70642-.77076,2.52355,2.52355,0,0,0,0-2.22842,1.97853,1.97853,0,0,0-.70642-.77011,1.84431,1.84431,0,0,0-.99821-.27945,1.56437,1.56437,0,0,0-.77465.19107,1.40572,1.40572,0,0,0-.51925.47116h-.04l.04-.57449v-1.60526h-.87831v5.71762H48.755Zm.16767-2.21608a1.23753,1.23753,0,0,1,.44321-.47507,1.12413,1.12413,0,0,1,.595-.16766,1.14691,1.14691,0,0,1,.59918.16766,1.22753,1.22753,0,0,1,.44712.47507,1.454,1.454,0,0,1,.16767.70707,1.47405,1.47405,0,0,1-.16767.71031,1.21653,1.21653,0,0,1-.44712.479,1.14157,1.14157,0,0,1-.59918.16832,1.119,1.119,0,0,1-.595-.16832,1.2264,1.2264,0,0,1-.44321-.479,1.47405,1.47405,0,0,1-.16767-.71031A1.454,1.454,0,0,1,48.92263,134.07862Z" transform="translate(0 0.0061)" fill="#fff"/>
    <path d="M55.32685,132.70932a1.42574,1.42574,0,0,0-1.20553.12348,1.13165,1.13165,0,0,0-.47116.51536h-.04029V132.749h-.83834v4.07278h.87863v-2.1563a1.274,1.274,0,0,1,.13583-.58683,1.113,1.113,0,0,1,.37108-.427.93773.93773,0,0,1,.53939-.15986,1.87058,1.87058,0,0,1,.63039.128Z" transform="translate(0 0.0061)" fill="#fff"/>
    <path d="M59.14423,134.282a1.573,1.573,0,0,0-.479-1.22568,1.96278,1.96278,0,0,0-1.3654-.43477,2.17957,2.17957,0,0,0-.95856.20731,1.83163,1.83163,0,0,0-.70252.58294l.61478.47118a1.15261,1.15261,0,0,1,.44322-.37563,1.31327,1.31327,0,0,1,.58684-.13517,1.0801,1.0801,0,0,1,.71876.23526.76122.76122,0,0,1,.27945.61088v.208a2.34627,2.34627,0,0,0-.45491-.14816,2.85005,2.85005,0,0,0-.64728-.0676,1.9058,1.9058,0,0,0-1.20163.36719,1.19371,1.19371,0,0,0-.47506.99822,1.34728,1.34728,0,0,0,.19172.71486,1.27685,1.27685,0,0,0,.53485.48675,1.72768,1.72768,0,0,0,.78245.17223,1.50315,1.50315,0,0,0,.735-.17612,1.381,1.381,0,0,0,.49521-.43932h.03964v.48742h.86239Zm-1.006,1.38163a1.08312,1.08312,0,0,1-.39968.40747,1.10137,1.10137,0,0,1-.57449.15143.84347.84347,0,0,1-.55889-.17936.56982.56982,0,0,1-.21576-.45946.63208.63208,0,0,1,.23135-.50691,1.11224,1.11224,0,0,1,.72657-.19561,2.00784,2.00784,0,0,1,.50755.06369,1.81729,1.81729,0,0,1,.427.16767A1.10709,1.10709,0,0,1,58.13823,135.66365Z" transform="translate(0 0.0061)" fill="#fff"/>
    <path d="M63.7603,134.24237a1.7218,1.7218,0,0,0-.38733-1.186,1.43514,1.43514,0,0,0-1.13014-.43477,1.53542,1.53542,0,0,0-.73891.18716,1.34761,1.34761,0,0,0-.52315.47507h-.03964V132.749H60.1028v4.07278h.878V134.618a1.3555,1.3555,0,0,1,.128-.58359,1.08806,1.08806,0,0,1,.35938-.43477.88973.88973,0,0,1,.52705-.16377.90668.90668,0,0,1,.65053.22356.92808.92808,0,0,1,.2359.70251v2.45978h.87864Z" transform="translate(0 0.0061)" fill="#fff"/>
    <path d="M68.663,136.82173v-5.71765h-.878v1.6052l.03964.57449H67.785a1.41342,1.41342,0,0,0-.51925-.47116,1.566,1.566,0,0,0-.77465-.19107,1.84434,1.84434,0,0,0-.99822.27945,1.98011,1.98011,0,0,0-.70706.77011,2.52348,2.52348,0,0,0,0,2.22842,1.98193,1.98193,0,0,0,.70706.77076,1.84984,1.84984,0,0,0,.99822.27945,1.56669,1.56669,0,0,0,.77465-.19173,1.43686,1.43686,0,0,0,.51925-.46337h.03965v.527ZM67.657,135.496a1.22184,1.22184,0,0,1-.44323.479,1.11936,1.11936,0,0,1-.59464.16832,1.14,1.14,0,0,1-.59919-.16832,1.21194,1.21194,0,0,1-.44711-.479,1.47411,1.47411,0,0,1-.16767-.71031,1.45406,1.45406,0,0,1,.16767-.70708,1.2229,1.2229,0,0,1,.44711-.47507,1.14548,1.14548,0,0,1,.59919-.16766,1.12469,1.12469,0,0,1,.59464.16766,1.23285,1.23285,0,0,1,.44323.47507,1.45419,1.45419,0,0,1,.16766.70708,1.47423,1.47423,0,0,1-.16768.71031Z" transform="translate(0 0.0061)" fill="#fff"/>
    <path d="M74.96355,136.82173V134.282a1.573,1.573,0,0,0-.479-1.22568,1.96274,1.96274,0,0,0-1.36539-.43477,2.17961,2.17961,0,0,0-.95857.20731,1.83163,1.83163,0,0,0-.70252.58294l.61477.47118a1.15268,1.15268,0,0,1,.44322-.37563,1.3133,1.3133,0,0,1,.58684-.13517,1.08017,1.08017,0,0,1,.71878.23526.76127.76127,0,0,1,.27944.61088v.208a2.34672,2.34672,0,0,0-.45491-.14816,2.85005,2.85005,0,0,0-.64728-.0676,1.90573,1.90573,0,0,0-1.20162.36719,1.19368,1.19368,0,0,0-.47506.99822,1.34709,1.34709,0,0,0,.19171.71486,1.27679,1.27679,0,0,0,.53485.48675,1.72794,1.72794,0,0,0,.78245.17223,1.50315,1.50315,0,0,0,.735-.17612,1.3812,1.3812,0,0,0,.49521-.43932h.03964v.48742Zm-1.006-1.15808a1.0832,1.0832,0,0,1-.39968.40747,1.10143,1.10143,0,0,1-.5745.15143.8435.8435,0,0,1-.55889-.17936.56988.56988,0,0,1-.21576-.45946.632.632,0,0,1,.23136-.50691,1.11224,1.11224,0,0,1,.72657-.19561,2.00778,2.00778,0,0,1,.50755.06369,1.81719,1.81719,0,0,1,.427.16767,1.107,1.107,0,0,1-.14367.55108Z" transform="translate(0 0.0061)" fill="#fff"/>
    <path d="M79.579,136.82173v-2.57936a1.71858,1.71858,0,0,0-.38732-1.186,1.43373,1.43373,0,0,0-1.1295-.43477,1.53358,1.53358,0,0,0-.7389.18716,1.34754,1.34754,0,0,0-.52315.47507h-.03965V132.749h-.83834v4.07278h.878V134.618a1.35536,1.35536,0,0,1,.128-.58359,1.08675,1.08675,0,0,1,.35872-.43477.89316.89316,0,0,1,.5277-.16377.90781.90781,0,0,1,.65053.22356.92809.92809,0,0,1,.23591.70251v2.45978Z" transform="translate(0 0.0061)" fill="#fff"/>
    <path d="M83.939,136.82173V134.282a1.57075,1.57075,0,0,0-.479-1.22568,1.96161,1.96161,0,0,0-1.36538-.43477,2.182,2.182,0,0,0-.95858.20731,1.83171,1.83171,0,0,0-.70252.58294l.61479.47118a1.15747,1.15747,0,0,1,.44321-.37563,1.31324,1.31324,0,0,1,.58684-.13517,1.079,1.079,0,0,1,.71877.23526.76124.76124,0,0,1,.27944.61088v.208a2.34627,2.34627,0,0,0-.45491-.14816,2.84775,2.84775,0,0,0-.64663-.0676,1.90774,1.90774,0,0,0-1.20227.36719,1.19541,1.19541,0,0,0-.47506.99822,1.34718,1.34718,0,0,0,.19171.71486,1.28075,1.28075,0,0,0,.53486.48675,1.72848,1.72848,0,0,0,.78309.17223,1.5025,1.5025,0,0,0,.73436-.17612,1.37015,1.37015,0,0,0,.49521-.43932h.03964v.48742Zm-1.006-1.15808a1.08156,1.08156,0,0,1-.399.40747,1.10377,1.10377,0,0,1-.57515.15143.8448.8448,0,0,1-.55889-.17936.57177.57177,0,0,1-.21576-.45946.63409.63409,0,0,1,.23136-.50691,1.11415,1.11415,0,0,1,.72721-.19561,2.00681,2.00681,0,0,1,.5069.06369,1.80525,1.80525,0,0,1,.427.16767,1.10027,1.10027,0,0,1-.14368.55108Z" transform="translate(0 0.0061)" fill="#fff"/>
    <rect x="84.89759" y="131.11023" width="0.87863" height="5.71762" fill="#fff"/>
    <path d="M89.64169,132.749l-.64911,1.60827q.73746-.78246,1.43924-1.60827Z" transform="translate(0 0.0061)" fill="#fff"/>
    <path d="M88.3044,135.06928l-.96263-2.32031h-.98262l1.30069,2.95739C87.8763,135.49591,88.09206,135.28458,88.3044,135.06928Z" transform="translate(0 0.0061)" fill="#fff"/>
    <path d="M29.11045,145.10915v-.91649a1.73567,1.73567,0,0,0-.36328-1.162,1.32267,1.32267,0,0,0-1.06612-.427,1.55223,1.55223,0,0,0-1.37352.74215,1.16825,1.16825,0,0,0-.47116-.53874,1.42157,1.42157,0,0,0-.76653-.20341,1.4727,1.4727,0,0,0-.676.16633c.74256.41612,1.49321.80878,2.2491,1.18627a1.20594,1.20594,0,0,1,.10353-.19516.84791.84791,0,0,1,.69505-.34314q.79058,0,.79057.92608v.3768C28.52353,144.85439,28.81716,144.98123,29.11045,145.10915Z" transform="translate(0 0.0061)" fill="#fff"/>
    <path d="M33.0793,146.644a2.1892,2.1892,0,0,0,.75061-.79025l-.74249-.35158a1.2898,1.2898,0,0,1-.44322.46726,1.20651,1.20651,0,0,1-.65085.17157,1.226,1.226,0,0,1-.82664-.30739,1.23988,1.23988,0,0,1-.40325-.87474H33.8858a2.047,2.047,0,0,0,.024-.27945,2.34441,2.34441,0,0,0-.23558-1.0619,1.78152,1.78152,0,0,0-.6866-.74282,2.03209,2.03209,0,0,0-1.06612-.271,1.91721,1.91721,0,0,0-1.0541.295,2.04143,2.04143,0,0,0-.723.7948,2.31227,2.31227,0,0,0-.2593,1.08205,2.37206,2.37206,0,0,0,.11933.72067c1.01077.41837,2.03493.79778,3.06832,1.1505Zm-1.87262-3.03038a1.056,1.056,0,0,1,.71486-.25149,1.15579,1.15579,0,0,1,.595.14361.977.977,0,0,1,.36329.35549,1.01873,1.01873,0,0,1,.13582.427H30.80339a1.30283,1.30283,0,0,1,.40325-.67461Z" transform="translate(0 0.0061)" fill="#fff"/>
    <path d="M38.66106,146.80387v-5.71762h-.87831v1.60519l.04.57449h-.04a1.40849,1.40849,0,0,0-.51925-.47116,1.56542,1.56542,0,0,0-.77466-.19107,1.84439,1.84439,0,0,0-.99821.27945,1.97928,1.97928,0,0,0-.70674.77011,2.52357,2.52357,0,0,0,0,2.22843,1.98107,1.98107,0,0,0,.70674.77075,1.84981,1.84981,0,0,0,.99821.27945,1.56586,1.56586,0,0,0,.77466-.19171,1.43168,1.43168,0,0,0,.51925-.46337h.04v.52706Zm-1.006-1.32575a1.22657,1.22657,0,0,1-.44322.479,1.11979,1.11979,0,0,1-.595.16832,1.1402,1.1402,0,0,1-.59919-.16832,1.21426,1.21426,0,0,1-.44712-.479,1.47407,1.47407,0,0,1-.16766-.71031,1.45405,1.45405,0,0,1,.16766-.70708,1.22509,1.22509,0,0,1,.44712-.47506,1.14535,1.14535,0,0,1,.59919-.16767,1.125,1.125,0,0,1,.595.16767,1.2376,1.2376,0,0,1,.44322.47506,1.45406,1.45406,0,0,1,.16767.70708,1.47409,1.47409,0,0,1-.16768.71028Z" transform="translate(0 0.0061)" fill="#fff"/>
    <rect x="39.74701" y="142.73718" width="0.87863" height="4.07278" fill="#fff"/>
    <path d="M40.60549,141.12978a.59783.59783,0,1,0,.17189.41917A.57018.57018,0,0,0,40.60549,141.12978Z" transform="translate(0 0.0061)" fill="#fff"/>
    <path d="M45.08965,146.80387v-2.53972a1.572,1.572,0,0,0-.47929-1.22568,1.96228,1.96228,0,0,0-1.36539-.43477,2.17833,2.17833,0,0,0-.95825.20732,1.8326,1.8326,0,0,0-.70284.58295l.61479.47116a1.15515,1.15515,0,0,1,.44321-.37563,1.31386,1.31386,0,0,1,.58717-.13517,1.07863,1.07863,0,0,1,.71844.23526.76153.76153,0,0,1,.27977.61088v.208a2.34975,2.34975,0,0,0-.45523-.14818,2.8476,2.8476,0,0,0-.647-.06758,1.90651,1.90651,0,0,0-1.202.36718,1.19447,1.19447,0,0,0-.47506.99822,1.35019,1.35019,0,0,0,.19171.71486,1.27762,1.27762,0,0,0,.53518.48675,1.72658,1.72658,0,0,0,.78245.17223,1.50091,1.50091,0,0,0,.73469-.17612,1.37542,1.37542,0,0,0,.4952-.43931h.04v.48739Zm-1.00635-1.15808a1.0825,1.0825,0,0,1-.39935.40748,1.10179,1.10179,0,0,1-.57481.15141.84424.84424,0,0,1-.5589-.17936.5708.5708,0,0,1-.21576-.45946.6324.6324,0,0,1,.23169-.50691,1.11153,1.11153,0,0,1,.72657-.1956A2.007,2.007,0,0,1,43.8,144.927a1.81927,1.81927,0,0,1,.4273.16766A1.104,1.104,0,0,1,44.0833,145.64579Z" transform="translate(0 0.0061)" fill="#fff"/>
    <path d="M51.79346,145.88169a2.52357,2.52357,0,0,0,0-2.22843,1.9786,1.9786,0,0,0-.70642-.77011,1.84439,1.84439,0,0,0-.99821-.27945,1.56437,1.56437,0,0,0-.77465.19107,1.40572,1.40572,0,0,0-.51925.47116h-.04l.04-.57449v-1.60519h-.87831v5.71762H48.755v-.52706h.04a1.42886,1.42886,0,0,0,.51925.46337,1.56489,1.56489,0,0,0,.77465.19171,1.84981,1.84981,0,0,0,.99821-.27945A1.98039,1.98039,0,0,0,51.79346,145.88169Zm-1.23347.07537a1.14148,1.14148,0,0,1-.59918.16832,1.11887,1.11887,0,0,1-.595-.16832,1.22638,1.22638,0,0,1-.44321-.479,1.47411,1.47411,0,0,1-.16767-.71031,1.45406,1.45406,0,0,1,.16767-.70708,1.23753,1.23753,0,0,1,.44321-.47507,1.12422,1.12422,0,0,1,.595-.16766,1.147,1.147,0,0,1,.59918.16766,1.2276,1.2276,0,0,1,.44712.47507,1.45406,1.45406,0,0,1,.16767.70708,1.47411,1.47411,0,0,1-.16767.71031,1.21648,1.21648,0,0,1-.44712.479Z" transform="translate(0 0.0061)" fill="#fff"/>
    <path d="M52.77153,142.7311v4.07278h.87863v-2.15629a1.27407,1.27407,0,0,1,.13583-.58684,1.11293,1.11293,0,0,1,.37108-.427.93774.93774,0,0,1,.53939-.15987,1.87059,1.87059,0,0,1,.63039.128v-.91048a1.42574,1.42574,0,0,0-1.20553.12347,1.13168,1.13168,0,0,0-.47116.51537h-.04029v-.59915Z" transform="translate(0 0.0061)" fill="#fff"/>
    <path d="M59.14423,146.80387v-2.53972a1.573,1.573,0,0,0-.479-1.22568,1.96283,1.96283,0,0,0-1.3654-.43477,2.17969,2.17969,0,0,0-.95856.20732,1.83133,1.83133,0,0,0-.70252.58295l.61478.47116a1.1527,1.1527,0,0,1,.44322-.37563,1.31327,1.31327,0,0,1,.58684-.13517,1.0801,1.0801,0,0,1,.71876.23526.76123.76123,0,0,1,.27945.61088v.208a2.34633,2.34633,0,0,0-.45491-.14818,2.84833,2.84833,0,0,0-.64728-.06758,1.90573,1.90573,0,0,0-1.20163.36718,1.19368,1.19368,0,0,0-.47506.99822,1.34728,1.34728,0,0,0,.19172.71486,1.27685,1.27685,0,0,0,.53485.48675,1.72768,1.72768,0,0,0,.78245.17223,1.50315,1.50315,0,0,0,.735-.17612,1.381,1.381,0,0,0,.49521-.43931h.03964v.48739Zm-1.006-1.15808a1.08337,1.08337,0,0,1-.39968.40748,1.10145,1.10145,0,0,1-.57449.15141.84347.84347,0,0,1-.55889-.17936.56982.56982,0,0,1-.21576-.45946.63213.63213,0,0,1,.23135-.50691,1.11217,1.11217,0,0,1,.72657-.1956,2.00784,2.00784,0,0,1,.50755.06369,1.81553,1.81553,0,0,1,.427.16766A1.10712,1.10712,0,0,1,58.13823,145.64579Z" transform="translate(0 0.0061)" fill="#fff"/>
    <path d="M63.7603,146.80387v-2.57936a1.72181,1.72181,0,0,0-.38733-1.186,1.43517,1.43517,0,0,0-1.13014-.43477,1.53531,1.53531,0,0,0-.73891.18717,1.3478,1.3478,0,0,0-.52315.47506h-.03964v-.53486H60.1028v4.07278h.878v-2.20379a1.35547,1.35547,0,0,1,.128-.58359,1.088,1.088,0,0,1,.35938-.43477.88959.88959,0,0,1,.52705-.16377.90667.90667,0,0,1,.65053.22355.9281.9281,0,0,1,.2359.70252v2.45978Z" transform="translate(0 0.0061)" fill="#fff"/>
    <path d="M68.663,141.08625h-.878v1.60519l.03964.57449H67.785a1.4135,1.4135,0,0,0-.51925-.47116,1.566,1.566,0,0,0-.77465-.19107,1.84443,1.84443,0,0,0-.99822.27945,1.98011,1.98011,0,0,0-.70706.77011,2.5235,2.5235,0,0,0,0,2.22843,1.98189,1.98189,0,0,0,.70706.77075,1.84984,1.84984,0,0,0,.99822.27945,1.5667,1.5667,0,0,0,.77465-.19171,1.437,1.437,0,0,0,.51925-.46337h.03965v.52706h.45841c.12709-.03989.253-.08652.37993-.12729Zm-1.006,4.39187a1.22193,1.22193,0,0,1-.44323.479,1.11954,1.11954,0,0,1-.59464.16832,1.1402,1.1402,0,0,1-.59919-.16832,1.212,1.212,0,0,1-.44711-.479,1.47408,1.47408,0,0,1-.16767-.71031,1.45406,1.45406,0,0,1,.16767-.70708,1.22281,1.22281,0,0,1,.44711-.47506,1.1454,1.1454,0,0,1,.59919-.16767,1.12461,1.12461,0,0,1,.59464.16767,1.23275,1.23275,0,0,1,.44323.47506,1.45422,1.45422,0,0,1,.16766.70708,1.4742,1.4742,0,0,1-.16768.71028Z" transform="translate(0 0.0061)" fill="#fff"/>
    <path d="M74.96355,144.26415a1.573,1.573,0,0,0-.479-1.22568,1.96279,1.96279,0,0,0-1.36539-.43477,2.17976,2.17976,0,0,0-.95857.20732,1.83149,1.83149,0,0,0-.70252.58295l.61477.47116a1.15277,1.15277,0,0,1,.44322-.37563,1.3133,1.3133,0,0,1,.58684-.13517,1.08017,1.08017,0,0,1,.71878.23526.76127.76127,0,0,1,.27944.61088v.208a2.34678,2.34678,0,0,0-.45491-.14818,2.84833,2.84833,0,0,0-.64728-.06758,1.90566,1.90566,0,0,0-1.20162.36718,1.19365,1.19365,0,0,0-.475.9982,1.45311,1.45311,0,0,0,.02372.18753c.3-.11222.59845-.23282.89752-.35008a.6175.6175,0,0,1,.19655-.33656,1.11217,1.11217,0,0,1,.72657-.1956,1.99253,1.99253,0,0,1,.33379.04188l.02949-.0115q.72543-.29691,1.43363-.615Z" transform="translate(0 0.0061)" fill="#fff"/>
    <path d="M78.06217,142.6037a1.53354,1.53354,0,0,0-.73891.18717,1.34763,1.34763,0,0,0-.52314.47506h-.03965v-.53483h-.83834V143.832q1.20774-.57429,2.36416-1.2108A2.12726,2.12726,0,0,0,78.06217,142.6037Z" transform="translate(0 0.0061)" fill="#fff"/>
  </g>
  <g>
    <path d="M95.77,91.2998a.56655.56655,0,0,0-.41-.17.58952.58952,0,0,0-.42.17.56656.56656,0,0,0-.17.41.607.607,0,0,0,.17.42.581.581,0,0,0,.42.16.55789.55789,0,0,0,.41-.16.607.607,0,0,0,.17-.42A.56656.56656,0,0,0,95.77,91.2998Zm-.85,1.58v4.01h.87v-4.01Z" transform="translate(0 0.0061)" fill="#fff"/>
    <path d="M97.81,96.1098l-.06-.03a1.06,1.06,0,0,1-.4-.48l-.77.34a1.67936,1.67936,0,0,0,.62.78,1.73905,1.73905,0,0,0,.82.28C97.96,96.69983,97.89,96.39984,97.81,96.1098Zm-.81-2.86c-.02.01-.04.04-.06.06a.97989.97989,0,0,0-.2.62.99565.99565,0,0,0,.31.76,1.53746,1.53746,0,0,0,.47.31C97.37,94.40985,97.2,93.81982,97,93.24982Z" transform="translate(0 0.0061)" fill="#fff"/>
  </g>
  <g>
    <path d="M95.77,101.27985a.56657.56657,0,0,0-.41-.17.58954.58954,0,0,0-.42.17.5664.5664,0,0,0-.17.41.58072.58072,0,0,0,.59.59.56633.56633,0,0,0,.41-.17.58949.58949,0,0,0,.17-.42A.5664.5664,0,0,0,95.77,101.27985Zm-.85,1.58v4.02h.87v-4.02Z" transform="translate(0 0.0061)" fill="#fff"/>
    <path d="M99.05,105.94983a.39646.39646,0,0,1-.17.17,1.28177,1.28177,0,0,1-.55.11005,1.0395,1.0395,0,0,1-.58-.17005,1.05967,1.05967,0,0,1-.4-.48l-.77.34a1.63167,1.63167,0,0,0,.62.78,1.95776,1.95776,0,0,0,1.13.3,2.16716,2.16716,0,0,0,.74-.12C99.07,106.56982,99.07,106.25983,99.05,105.94983Zm-.05-1.35c-.07-.02-.14-.04-.22-.06l-.59-.15a1.39593,1.39593,0,0,1-.44-.2.33885.33885,0,0,1-.15-.29.35736.35736,0,0,1,.2-.31.9122.9122,0,0,1,.49-.12.89179.89179,0,0,1,.66.24c-.01-.3-.04-.6-.07-.9a2.23409,2.23409,0,0,0-.6-.07995,1.9235,1.9235,0,0,0-.77.15,1.35389,1.35389,0,0,0-.57.41.97973.97973,0,0,0-.2.62.99565.99565,0,0,0,.31.76,1.75753,1.75753,0,0,0,.8.42l.48.12a1.71277,1.71277,0,0,1,.57995.22.46772.46772,0,0,1,.14.14C99.04,105.23981,99.03,104.91986,99,104.59985Z" transform="translate(0 0.0061)" fill="#fff"/>
  </g>
  <g>
    <path d="M95.77,111.25983a.56652.56652,0,0,0-.41-.17.58063.58063,0,0,0-.59.59.56643.56643,0,0,0,.17.41.58948.58948,0,0,0,.42.17.58037.58037,0,0,0,.58-.58A.58949.58949,0,0,0,95.77,111.25983Zm-.85,1.58v4.02h.87v-4.02Z" transform="translate(0 0.0061)" fill="#fff"/>
    <path d="M97.8,113.56982a1.01488,1.01488,0,0,1,.49-.11.88442.88442,0,0,1,.41.08c.04-.26.07-.51.1-.77a2.86376,2.86376,0,0,0-.52-.05,2.11113,2.11113,0,0,0-.77.14,1.44612,1.44612,0,0,0-.57.41,1.07528,1.07528,0,0,0,.11,1.38,1.757,1.757,0,0,0,.8.42l.48.12a.49542.49542,0,0,1,.13.04c.04-.25.08-.5.12-.76l-.39-.1a1.40721,1.40721,0,0,1-.44-.19.35553.35553,0,0,1,.05-.61Zm-.05,2.48a1.05967,1.05967,0,0,1-.4-.48l-.77.33a1.63111,1.63111,0,0,0,.62.78,1.79644,1.79644,0,0,0,.93.29c.06-.25.11-.5.15-.76A1.06327,1.06327,0,0,1,97.75,116.0498Z" transform="translate(0 0.0061)" fill="#fff"/>
  </g>
  <path d="M94.92,122.94983v3.16c.31-.6.61005-1.21.87-1.83v-1.33Zm.85-1.58a.55787.55787,0,0,0-.41-.16.58093.58093,0,0,0-.42.16.60706.60706,0,0,0-.17.42005.56641.56641,0,0,0,.17.41.58952.58952,0,0,0,.42.17.58035.58035,0,0,0,.58-.57995A.60706.60706,0,0,0,95.77,121.36981Z" transform="translate(0 0.0061)" fill="#fff"/>
</svg>
